{
	"asset": {
		"generator": "Blocks 4.0.1RC0 SVR",
		"version": "1.1",
		"copyright": "Unknown"
	},
	"buffers": {
		"model": {
			"byteLength": 408844,
			"type": "arraybuffer",
			"uri": "model.bin"
		}
	},
	"accessors": {
		"accessor_position_m0-PolyPaper12_-136054": {
			"bufferView": "vec3BufferView",
			"byteOffset": 0,
			"byteStride": 12,
			"componentType": 5126,
			"count": 6658,
			"max": [ 1.229958, 3.276328, 0.8201011 ],
			"min": [ -1.170044, 1.202685, -0.8321506 ],
			"type": "VEC3"
		 },
		"accessor_normal_m0-PolyPaper12_-136054": {
			"bufferView": "vec3BufferView",
			"byteOffset": 79896,
			"byteStride": 12,
			"componentType": 5126,
			"count": 6658,
			"max": [ 1, 1, 1 ],
			"min": [ -0.9999999, -1, -1 ],
			"type": "VEC3"
		 },
		"accessor_color_m0-PolyPaper12_-136054": {
			"bufferView": "vec4BufferView",
			"byteOffset": 0,
			"byteStride": 16,
			"componentType": 5126,
			"count": 6658,
			"max": [ 1, 1, 1, 1 ],
			"min": [ 0, 0.1019608, 0, 1 ],
			"type": "VEC4"
		 },
		"accessor_indices_0_m0-PolyPaper12_-136054": {
			"bufferView": "ushortBufferView",
			"byteOffset": 0,
			"byteStride": 0,
			"componentType": 5123,
			"count": 9870,
			"max": [ 6657 ],
			"min": [ 0 ],
			"type": "SCALAR"
		 },
		"accessor_position_m1-PolyGem25_-136060": {
			"bufferView": "vec3BufferView",
			"byteOffset": 159792,
			"byteStride": 12,
			"componentType": 5126,
			"count": 102,
			"max": [ 0.06803229, 1.769437, 0.3405921 ],
			"min": [ -0.01014764, 1.619437, 0.2769543 ],
			"type": "VEC3"
		 },
		"accessor_normal_m1-PolyGem25_-136060": {
			"bufferView": "vec3BufferView",
			"byteOffset": 161016,
			"byteStride": 12,
			"componentType": 5126,
			"count": 102,
			"max": [ 0.9603811, 0.5816243, 0.9704898 ],
			"min": [ -0.9771714, -0.9992241, -0.9704893 ],
			"type": "VEC3"
		 },
		"accessor_color_m1-PolyGem25_-136060": {
			"bufferView": "vec4BufferView",
			"byteOffset": 106528,
			"byteStride": 16,
			"componentType": 5126,
			"count": 102,
			"max": [ 1, 1, 1, 1 ],
			"min": [ 1, 1, 1, 1 ],
			"type": "VEC4"
		 },
		"accessor_indices_0_m1-PolyGem25_-136060": {
			"bufferView": "ushortBufferView",
			"byteOffset": 19740,
			"byteStride": 0,
			"componentType": 5123,
			"count": 138,
			"max": [ 101 ],
			"min": [ 0 ],
			"type": "SCALAR"
		 },
		"accessor_position_m2-PolyGlass24_-136066": {
			"bufferView": "vec3BufferView",
			"byteOffset": 162240,
			"byteStride": 12,
			"componentType": 5126,
			"count": 2754,
			"max": [ 0.9119627, 3.160851, 0.4929604 ],
			"min": [ -0.9864374, 1.286582, -0.5998676 ],
			"type": "VEC3"
		 },
		"accessor_normal_m2-PolyGlass24_-136066": {
			"bufferView": "vec3BufferView",
			"byteOffset": 195288,
			"byteStride": 12,
			"componentType": 5126,
			"count": 2754,
			"max": [ 1, 1, 0.9991243 ],
			"min": [ -1, -1, -0.9991244 ],
			"type": "VEC3"
		 },
		"accessor_color_m2-PolyGlass24_-136066": {
			"bufferView": "vec4BufferView",
			"byteOffset": 108160,
			"byteStride": 16,
			"componentType": 5126,
			"count": 2754,
			"max": [ 1, 1, 1, 1 ],
			"min": [ 1, 1, 1, 1 ],
			"type": "VEC4"
		 },
		"accessor_indices_0_m2-PolyGlass24_-136066": {
			"bufferView": "ushortBufferView",
			"byteOffset": 20016,
			"byteStride": 0,
			"componentType": 5123,
			"count": 4134,
			"max": [ 2753 ],
			"min": [ 0 ],
			"type": "SCALAR"
		 }
	},
	"bufferViews": {
		"ushortBufferView": {
			"buffer": "model",
			"byteLength": 28284,
			"byteOffset": 0,
			"target": 34963
		},
		"vec3BufferView": {
			"buffer": "model",
			"byteLength": 228336,
			"byteOffset": 28284,
			"target": 34962
		},
		"vec4BufferView": {
			"buffer": "model",
			"byteLength": 152224,
			"byteOffset": 256620,
			"target": 34962
		}
	},
	"meshes": {
		"mesh_m0-PolyPaper12_-136054": {
			"name": "mesh_m0-PolyPaper12_-136054",
			"primitives": [
				{
					"attributes": {
						"POSITION": "accessor_position_m0-PolyPaper12_-136054",
						"NORMAL": "accessor_normal_m0-PolyPaper12_-136054",
						"COLOR": "accessor_color_m0-PolyPaper12_-136054"
					},
					"indices": "accessor_indices_0_m0-PolyPaper12_-136054",
					"material": "material_mat12",
					"mode": 4
				}
			]
		},
		"mesh_m1-PolyGem25_-136060": {
			"name": "mesh_m1-PolyGem25_-136060",
			"primitives": [
				{
					"attributes": {
						"POSITION": "accessor_position_m1-PolyGem25_-136060",
						"NORMAL": "accessor_normal_m1-PolyGem25_-136060",
						"COLOR": "accessor_color_m1-PolyGem25_-136060"
					},
					"indices": "accessor_indices_0_m1-PolyGem25_-136060",
					"material": "material_mat25",
					"mode": 4
				}
			]
		},
		"mesh_m2-PolyGlass24_-136066": {
			"name": "mesh_m2-PolyGlass24_-136066",
			"primitives": [
				{
					"attributes": {
						"POSITION": "accessor_position_m2-PolyGlass24_-136066",
						"NORMAL": "accessor_normal_m2-PolyGlass24_-136066",
						"COLOR": "accessor_color_m2-PolyGlass24_-136066"
					},
					"indices": "accessor_indices_0_m2-PolyGlass24_-136066",
					"material": "material_mat24",
					"mode": 4
				}
			]
		}
	},
	"shaders": {
		"vertex_mat12": {
			"type": 35633,
			"uri": "https://vr.google.com/shaders/w/vs.glsl"
		},
		"fragment_mat12": {
			"type": 35632,
			"uri": "https://vr.google.com/shaders/w/fs.glsl"
		},
		"vertex_mat25": {
			"type": 35633,
			"uri": "https://vr.google.com/shaders/w/gemVS.glsl"
		},
		"fragment_mat25": {
			"type": 35632,
			"uri": "https://vr.google.com/shaders/w/gemFS.glsl"
		},
		"vertex_mat24": {
			"type": 35633,
			"uri": "https://vr.google.com/shaders/w/glassVS.glsl"
		},
		"fragment_mat24": {
			"type": 35632,
			"uri": "https://vr.google.com/shaders/w/glassFS.glsl"
		}
	},
	"programs": {
		"program_mat12": {
			"attributes": [
				"a_position",
				"a_normal",
				"a_color"				
			],
			"vertexShader": "vertex_mat12",
			"fragmentShader": "fragment_mat12"
		},
		"program_mat25": {
			"attributes": [
				"a_position",
				"a_normal",
				"a_color"				
			],
			"vertexShader": "vertex_mat25",
			"fragmentShader": "fragment_mat25"
		},
		"program_mat24": {
			"attributes": [
				"a_position",
				"a_normal",
				"a_color"				
			],
			"vertexShader": "vertex_mat24",
			"fragmentShader": "fragment_mat24"
		}
	},
	"techniques": {
		"technique_mat12": {
			"program": "program_mat12",
			"extras": {"gvrss" : "https://vr.google.com/shaders/w/gvrss/paper.json"},
			"parameters": {
				"position": {
					"type": 35665,
					"semantic": "POSITION"
				},
				"normal": {
					"type": 35665,
					"semantic": "NORMAL"
				},
				"color": {
					"type": 35666,
					"semantic": "COLOR"
				},
				"modelViewMatrix": {
					"type": 35676,
					"semantic": "MODELVIEW"
				},
				"projectionMatrix": {
					"type": 35676,
					"semantic": "PROJECTION"
				},
				"normalMatrix": {
					"type": 35675,
					"semantic": "MODELVIEWINVERSETRANSPOSE"
				},
				"color": {
					"type": 35666
				},
				"roughness": {
					"type": 5126
				},
				"metallic": {
					"type": 5126
				},
				"light0Pos": {
					"type": 35666
				},
				"light0Color": {
					"type": 35666
				},
				"light1Pos": {
					"type": 35666
				},
				"light1Color": {
					"type": 35666
				}				
			},
			"attributes": {
				"a_position": "position",
				"a_normal": "normal",
				"a_color": "color"				
			},
			"uniforms": {
				"u_modelViewMatrix": "modelViewMatrix",
				"u_projectionMatrix": "projectionMatrix",
				"u_normalMatrix": "normalMatrix",
				"u_color": "color",
				"u_roughness": "roughness",
				"u_metallic": "metallic",
				"u_light0Pos": "light0Pos",
				"u_light0Color": "light0Color",
				"u_light1Pos": "light1Pos",
				"u_light1Color": "light1Color"				
			},
			"states": {
				"enable": [
					2929,
					2884
				],
				"functions": {
					"cullFace": [1029]
				}
			}
		},
		"technique_mat25": {
			"program": "program_mat25",
			"extras": {"gvrss" : "https://vr.google.com/shaders/w/gvrss/gem.json"},
			"parameters": {
				"position": {
					"type": 35665,
					"semantic": "POSITION"
				},
				"normal": {
					"type": 35665,
					"semantic": "NORMAL"
				},
				"color": {
					"type": 35666,
					"semantic": "COLOR"
				},
				"modelViewMatrix": {
					"type": 35676,
					"semantic": "MODELVIEW"
				},
				"projectionMatrix": {
					"type": 35676,
					"semantic": "PROJECTION"
				},
				"normalMatrix": {
					"type": 35675,
					"semantic": "MODELVIEWINVERSETRANSPOSE"
				},
				"color": {
					"type": 35666
				},
				"roughness": {
					"type": 5126
				},
				"metallic": {
					"type": 5126
				},
				"gem": {
					"type": 35678
				},
				"light0Pos": {
					"type": 35666
				},
				"light0Color": {
					"type": 35666
				},
				"light1Pos": {
					"type": 35666
				},
				"light1Color": {
					"type": 35666
				}				
			},
			"attributes": {
				"a_position": "position",
				"a_normal": "normal",
				"a_color": "color"				
			},
			"uniforms": {
				"u_modelViewMatrix": "modelViewMatrix",
				"u_projectionMatrix": "projectionMatrix",
				"u_normalMatrix": "normalMatrix",
				"u_color": "color",
				"u_roughness": "roughness",
				"u_metallic": "metallic",
				"u_gem": "gem",
				"u_light0Pos": "light0Pos",
				"u_light0Color": "light0Color",
				"u_light1Pos": "light1Pos",
				"u_light1Color": "light1Color"				
			},
			"states": {
				"enable": [
					2929,
					2884
				],
				"functions": {
					"cullFace": [1029]
				}
			}
		},
		"technique_mat24": {
			"program": "program_mat24",
			"extras": {"gvrss" : "https://vr.google.com/shaders/w/gvrss/glass.json"},
			"parameters": {
				"position": {
					"type": 35665,
					"semantic": "POSITION"
				},
				"normal": {
					"type": 35665,
					"semantic": "NORMAL"
				},
				"color": {
					"type": 35666,
					"semantic": "COLOR"
				},
				"modelViewMatrix": {
					"type": 35676,
					"semantic": "MODELVIEW"
				},
				"projectionMatrix": {
					"type": 35676,
					"semantic": "PROJECTION"
				},
				"normalMatrix": {
					"type": 35675,
					"semantic": "MODELVIEWINVERSETRANSPOSE"
				},
				"color": {
					"type": 35666
				},
				"roughness": {
					"type": 5126
				},
				"metallic": {
					"type": 5126
				},
				"light0Pos": {
					"type": 35666
				},
				"light0Color": {
					"type": 35666
				},
				"light1Pos": {
					"type": 35666
				},
				"light1Color": {
					"type": 35666
				}				
			},
			"attributes": {
				"a_position": "position",
				"a_normal": "normal",
				"a_color": "color"				
			},
			"uniforms": {
				"u_modelViewMatrix": "modelViewMatrix",
				"u_projectionMatrix": "projectionMatrix",
				"u_normalMatrix": "normalMatrix",
				"u_color": "color",
				"u_roughness": "roughness",
				"u_metallic": "metallic",
				"u_light0Pos": "light0Pos",
				"u_light0Color": "light0Color",
				"u_light1Pos": "light1Pos",
				"u_light1Color": "light1Color"				
			},
			"states": {
				"enable": [
					2929,
					3042
				],
				"functions": {
					"blendFuncSeparate": [775, 774, 773, 772],
					"depthMask": [true]
				}
			}
		}
	},
	"samplers": {
		"sampler_LINEAR_LINEAR_REPEAT": {
			"magFilter": 9729,
			"minFilter": 9987,
			"wrapS": 10497,
			"wrapT": 10497
		}
	},
	"textures": {
		"texture_mat25_gem": {
			"format": 6408,
			"internalFormat": 6408,
			"sampler": "sampler_LINEAR_LINEAR_REPEAT",
			"source": "image_mat25_gem",
			"target": 3553,
			"type": 5121
		}
	},
	"images": {
		"image_mat25_gem": {
			"uri": "https://vr.google.com/shaders/w/GemRefractions.png"
		}
	},
	"materials": {
		"material_mat12": {
			"technique": "technique_mat12",
			"values": {
				"color": [1, 0.9215686, 0.2313726, 1],
				"roughness": 1,
				"metallic": 0,
				"light0Pos": [-0.02, 4.11, -0.54, 0],
				"light0Color": [1.28, 1.232075, 1.101177, 0],
				"light1Pos": [0.02, -4.11, 0.54, 0],
				"light1Color": [0.2941177, 0.2953672, 0.32, 0]				
			},
			"name": "material_mat12"
		},
		"material_mat25": {
			"technique": "technique_mat25",
			"values": {
				"color": [1, 1, 1, 1],
				"roughness": 0.001,
				"metallic": 0,
				"gem": "texture_mat25_gem",
				"light0Pos": [-0.02, 4.11, -0.54, 0],
				"light0Color": [1.28, 1.232075, 1.101177, 0],
				"light1Pos": [0.02, -4.11, 0.54, 0],
				"light1Color": [0.2941177, 0.2953672, 0.32, 0]				
			},
			"name": "material_mat25"
		},
		"material_mat24": {
			"technique": "technique_mat24",
			"values": {
				"color": [0.8392157, 0.8392157, 0.8392157, 0.2509804],
				"roughness": 0,
				"metallic": 0,
				"light0Pos": [-0.02, 4.11, -0.54, 0],
				"light0Color": [1.28, 1.232075, 1.101177, 0],
				"light1Pos": [0.02, -4.11, 0.54, 0],
				"light1Color": [0.2941177, 0.2953672, 0.32, 0]				
			},
			"name": "material_mat24"
		}
	},
	"nodes": {
		"node_MeshObject-1820571648-PolyPaper12": {
			"name": "node_MeshObject-1820571648-PolyPaper12",
			"meshes": [
				"mesh_m0-PolyPaper12_-136054"
			],
			"matrix": [1, 0, 0, 0, 0, 1, 0, 0, 0, 0, 1, 0, 0, 0, 0, 1]
		},
		"node_MeshObject-1248492544-PolyGem25": {
			"name": "node_MeshObject-1248492544-PolyGem25",
			"meshes": [
				"mesh_m1-PolyGem25_-136060"
			],
			"matrix": [1, 0, 0, 0, 0, 1, 0, 0, 0, 0, 1, 0, 0, 0, 0, 1]
		},
		"node_MeshObject-676413440-PolyGlass24": {
			"name": "node_MeshObject-676413440-PolyGlass24",
			"meshes": [
				"mesh_m2-PolyGlass24_-136066"
			],
			"matrix": [1, 0, 0, 0, 0, 1, 0, 0, 0, 0, 1, 0, 0, 0, 0, 1]
		}
	},
	"scene": "defaultScene",
	"scenes": {
		"defaultScene": {
			"nodes": [
				"node_MeshObject-1820571648-PolyPaper12",
				"node_MeshObject-1248492544-PolyGem25",
				"node_MeshObject-676413440-PolyGlass24"
			],
			"extras": {

			}
		}
	}
}