{
	"asset": {
		"generator": "Tilt Brush 22.3.bfe37158d",
		"version": "1.1",
		"copyright": "Unknown."
	},
	"buffers": {
		"buffer_sketch": {
			"byteLength": 235872,
			"type": "arraybuffer",
			"uri": "sketch.bin"
		}
	},
	"accessors": {
		"accessor_position_UnlitHull_a8fea537-da7c-4d4b-817f-24f074725d6d_0_i0": {
			"bufferView": "vec3BufferView",
			"byteOffset": 0,
			"byteStride": 12,
			"componentType": 5126,
			"count": 4368,
			"max": [ -0.158354893, 1.27282834, 0.0314241126 ],
			"min": [ -0.322003514, 0.647724807, -0.131915256 ],
			"type": "VEC3"
		},
		"accessor_normal_UnlitHull_a8fea537-da7c-4d4b-817f-24f074725d6d_0_i0": {
			"bufferView": "vec3BufferView",
			"byteOffset": 52416,
			"byteStride": 12,
			"componentType": 5126,
			"count": 4368,
			"max": [ 0.994115591, 0.998807132, 0.992449701 ],
			"min": [ -0.999304235, -0.994565308, -0.999824047 ],
			"type": "VEC3"
		},
		"accessor_color_UnlitHull_a8fea537-da7c-4d4b-817f-24f074725d6d_0_i0": {
			"bufferView": "vec4BufferView",
			"byteOffset": 0,
			"byteStride": 16,
			"componentType": 5126,
			"count": 4368,
			"type": "VEC4"
		},
		"accessor_uv0_UnlitHull_a8fea537-da7c-4d4b-817f-24f074725d6d_0_i0": {
			"bufferView": "vec3BufferView",
			"byteOffset": 104832,
			"byteStride": 12,
			"componentType": 5126,
			"count": 4368,
			"max": [ 0, 1, 0.0294461846 ],
			"min": [ 0, 1, 0.00612132251 ],
			"type": "VEC3"
		},
		"accessor_indices_0_UnlitHull_a8fea537-da7c-4d4b-817f-24f074725d6d_0_i0": {
			"bufferView": "ushortBufferView",
			"byteOffset": 0,
			"byteStride": 0,
			"componentType": 5123,
			"count": 4368,
			"max": [ 4367 ],
			"min": [ 0 ],
			"type": "SCALAR"
		}
	},
	"bufferViews": {
		"ushortBufferView": {
			"buffer": "buffer_sketch",
			"byteLength": 8736,
			"byteOffset": 0,
			"target": 34963
		},
		"vec3BufferView": {
			"buffer": "buffer_sketch",
			"byteLength": 157248,
			"byteOffset": 8736,
			"target": 34962
		},
		"vec4BufferView": {
			"buffer": "buffer_sketch",
			"byteLength": 69888,
			"byteOffset": 165984,
			"target": 34962
		}
	},
	"meshes": {
		"mesh_UnlitHull_a8fea537-da7c-4d4b-817f-24f074725d6d_0_i0": {
			"name": "mesh_UnlitHull_a8fea537-da7c-4d4b-817f-24f074725d6d_0_i0",
			"primitives": [
				{
					"attributes": {
						"POSITION": "accessor_position_UnlitHull_a8fea537-da7c-4d4b-817f-24f074725d6d_0_i0",
						"NORMAL": "accessor_normal_UnlitHull_a8fea537-da7c-4d4b-817f-24f074725d6d_0_i0",
						"COLOR": "accessor_color_UnlitHull_a8fea537-da7c-4d4b-817f-24f074725d6d_0_i0",
						"TEXCOORD_0": "accessor_uv0_UnlitHull_a8fea537-da7c-4d4b-817f-24f074725d6d_0_i0"
					},
					"indices": "accessor_indices_0_UnlitHull_a8fea537-da7c-4d4b-817f-24f074725d6d_0_i0",
					"material": "material_a8fea537-da7c-4d4b-817f-24f074725d6d",
					"mode": 4
				}
			]
		}
	},
	"shaders": {
		"vertex_a8fea537-da7c-4d4b-817f-24f074725d6d": {
			"type": 35633,
			"uri": "https://www.tiltbrush.com/shaders/brushes/UnlitHull-a8fea537-da7c-4d4b-817f-24f074725d6d/UnlitHull-a8fea537-da7c-4d4b-817f-24f074725d6d-v10.0-vertex.glsl"
		},
		"fragment_a8fea537-da7c-4d4b-817f-24f074725d6d": {
			"type": 35632,
			"uri": "https://www.tiltbrush.com/shaders/brushes/UnlitHull-a8fea537-da7c-4d4b-817f-24f074725d6d/UnlitHull-a8fea537-da7c-4d4b-817f-24f074725d6d-v10.0-fragment.glsl"
		}
	},
	"programs": {
		"program_a8fea537-da7c-4d4b-817f-24f074725d6d": {
			"attributes": [
				"a_position",
				"a_normal",
				"a_color",
				"a_texcoord0"
			],
			"vertexShader": "vertex_a8fea537-da7c-4d4b-817f-24f074725d6d",
			"fragmentShader": "fragment_a8fea537-da7c-4d4b-817f-24f074725d6d"
		}
	},
	"techniques": {
		"technique_a8fea537-da7c-4d4b-817f-24f074725d6d": {
			"program": "program_a8fea537-da7c-4d4b-817f-24f074725d6d",
			"parameters": {
				"position": {
					"type": 35665,
					"semantic": "POSITION"
				},
				"normal": {
					"type": 35665,
					"semantic": "NORMAL"
				},
				"color": {
					"type": 35666,
					"semantic": "COLOR"
				},
				"texcoord0": {
					"type": 35665,
					"semantic": "TEXCOORD_0"
				},
				"modelViewMatrix": {
					"type": 35676,
					"semantic": "MODELVIEW"
				},
				"projectionMatrix": {
					"type": 35676,
					"semantic": "PROJECTION"
				},
				"normalMatrix": {
					"type": 35675,
					"semantic": "MODELVIEWINVERSETRANSPOSE"
				},
				"SceneLight_0_matrix": {
					"type": 35676,
					"semantic": "MODELVIEW",
					"node": "node_SceneLight_0_i1"
				},
				"SceneLight_0_color": {
					"type": 35666,
					"node": "node_SceneLight_0_i1"
				},
				"SceneLight_1_matrix": {
					"type": 35676,
					"semantic": "MODELVIEW",
					"node": "node_SceneLight_1_i2"
				},
				"SceneLight_1_color": {
					"type": 35666,
					"node": "node_SceneLight_1_i2"
				},
				"ambient_light_color": {
					"type": 35666
				},
				"Cutoff": {
					"type": 5126
				}
			},
			"attributes": {
				"a_position": "position",
				"a_normal": "normal",
				"a_color": "color",
				"a_texcoord0": "texcoord0"
			},
			"uniforms": {
				"u_modelViewMatrix": "modelViewMatrix",
				"u_projectionMatrix": "projectionMatrix",
				"u_normalMatrix": "normalMatrix",
				"u_SceneLight_0_matrix": "SceneLight_0_matrix",
				"u_SceneLight_0_color": "SceneLight_0_color",
				"u_SceneLight_1_matrix": "SceneLight_1_matrix",
				"u_SceneLight_1_color": "SceneLight_1_color",
				"u_ambient_light_color": "ambient_light_color",
				"u_Cutoff": "Cutoff"
			},
			"states": {
				"enable": [
					2929
				],
				"functions": {
					"depthMask": [true]
				}
			}
		}
	},
	"materials": {
		"material_a8fea537-da7c-4d4b-817f-24f074725d6d": {
			"technique": "technique_a8fea537-da7c-4d4b-817f-24f074725d6d",
			"values": {
				"SceneLight_0_color": [0.7780392, 0.8156863, 0.9913726, 1],
				"SceneLight_1_color": [0.4282353, 0.4211765, 0.3458824, 1],
				"ambient_light_color": [0.3921569, 0.3921569, 0.3921569, 1],
				"Cutoff": 0.5
			},
			"name": "material_a8fea537-da7c-4d4b-817f-24f074725d6d"
		}
	},
	"nodes": {
		"node_UnlitHull_a8fea537-da7c-4d4b-817f-24f074725d6d_0_i0": {
			"name": "node_UnlitHull_a8fea537-da7c-4d4b-817f-24f074725d6d_0_i0",
			"meshes": [
				"mesh_UnlitHull_a8fea537-da7c-4d4b-817f-24f074725d6d_0_i0"
			],
			"matrix": [1, 0, 0, 0, 0, 1, 0, 0, 0, 0, 1, 0, 0, 0, 0, 1]
		},
		"node_SceneLight_0_i1": {
			"name": "node_SceneLight_0_i1",
			"light": "SceneLight_0",
			"matrix": [0.898794, 0.2191856, -0.3796406, 0, -0.4383712, 0.449397, -0.7783785, 0, -1.490116E-08, 0.8660254, 0.4999999, 0, 0.4719864, -1.562971, 0.5017025, 1]
		},
		"node_SceneLight_1_i2": {
			"name": "node_SceneLight_1_i2",
			"light": "SceneLight_1",
			"matrix": [0.7660446, -0.4924039, -0.4131757, 0, -0.6427875, -0.5868244, -0.4924039, 0, 2.980232E-08, 0.6427875, -0.7660447, 0, 0.4719864, -1.581393, 0.397225, 1]
		}
	},
	"scene": "defaultScene",
	"scenes": {
		"defaultScene": {
			"nodes": [
				"node_UnlitHull_a8fea537-da7c-4d4b-817f-24f074725d6d_0_i0",
				"node_SceneLight_0_i1",
				"node_SceneLight_1_i2"
			],
			"extras": {
				"TB_EnvironmentGuid": "ab080599-e465-4a6d-8587-43bf495af68b",
				"TB_Environment": "Standard",
				"TB_UseGradient": "true",
				"TB_SkyColorA": "0.2745098, 0.2745098, 0.3176471",
				"TB_SkyColorB": "0.03529412, 0.03529412, 0.08627451",
				"TB_SkyGradientDirection": "0, 1, 0",
				"TB_FogColor": "0.1647059, 0.1647059, 0.2078431",
				"TB_FogDensity": "0.0025",
				"TB_SkyColorHorizon": "0.2745098, 0.2745098, 0.3176471",
				"TB_SkyColorZenith": "0.03529412, 0.03529412, 0.08627451"
			}
		}
	}
}