{
	"asset": {
		"generator": "Tilt Brush 22.3.bfe37158d",
		"version": "1.1",
		"copyright": "Unknown."
	},
	"buffers": {
		"buffer_sketch": {
			"byteLength": 273552,
			"type": "arraybuffer",
			"uri": "sketch.bin"
		}
	},
	"accessors": {
		"accessor_position_Marker_429ed64a-4e97-4466-84d3-145a861ef684_0_i0": {
			"bufferView": "vec3BufferView",
			"byteOffset": 0,
			"byteStride": 12,
			"componentType": 5126,
			"count": 2496,
			"max": [ 0.0523202196, 1.03283393, 0.535651922 ],
			"min": [ -0.442752421, 0.808771133, -0.0185566843 ],
			"type": "VEC3"
		},
		"accessor_normal_Marker_429ed64a-4e97-4466-84d3-145a861ef684_0_i0": {
			"bufferView": "vec3BufferView",
			"byteOffset": 29952,
			"byteStride": 12,
			"componentType": 5126,
			"count": 2496,
			"max": [ 0.842249751, 0.999950886, 0.779507935 ],
			"min": [ -0.828836858, -0.999976814, -0.834761322 ],
			"type": "VEC3"
		},
		"accessor_color_Marker_429ed64a-4e97-4466-84d3-145a861ef684_0_i0": {
			"bufferView": "vec4BufferView",
			"byteOffset": 0,
			"byteStride": 16,
			"componentType": 5126,
			"count": 2496,
			"type": "VEC4"
		},
		"accessor_tangent_Marker_429ed64a-4e97-4466-84d3-145a861ef684_0_i0": {
			"bufferView": "vec4BufferView",
			"byteOffset": 39936,
			"byteStride": 16,
			"componentType": 5126,
			"count": 2496,
			"max": [ 0.997682869, 0.814477444, 0.999531925, 1 ],
			"min": [ -0.997371376, -0.92793417, -0.999979377, 1 ],
			"type": "VEC4"
		},
		"accessor_uv0_Marker_429ed64a-4e97-4466-84d3-145a861ef684_0_i0": {
			"bufferView": "vec2BufferView",
			"byteOffset": 0,
			"byteStride": 8,
			"componentType": 5126,
			"count": 2496,
			"max": [ 5.08208275, 1 ],
			"min": [ 0.00802594982, 0 ],
			"type": "VEC2"
		},
		"accessor_indices_0_Marker_429ed64a-4e97-4466-84d3-145a861ef684_0_i0": {
			"bufferView": "ushortBufferView",
			"byteOffset": 0,
			"byteStride": 0,
			"componentType": 5123,
			"count": 6756,
			"max": [ 2495 ],
			"min": [ 0 ],
			"type": "SCALAR"
		},
		"accessor_position_Paper_f1114e2e-eb8d-4fde-915a-6e653b54e9f5_0_i0": {
			"bufferView": "vec3BufferView",
			"byteOffset": 59904,
			"byteStride": 12,
			"componentType": 5126,
			"count": 928,
			"max": [ 0.0481546, 0.962190449, 0.486242384 ],
			"min": [ -0.401553243, 0.852047443, 0.05371622 ],
			"type": "VEC3"
		},
		"accessor_normal_Paper_f1114e2e-eb8d-4fde-915a-6e653b54e9f5_0_i0": {
			"bufferView": "vec3BufferView",
			"byteOffset": 71040,
			"byteStride": 12,
			"componentType": 5126,
			"count": 928,
			"max": [ 0.714989722, 0.999990821, 0.621392906 ],
			"min": [ -0.818878353, -0.999595165, -0.733290076 ],
			"type": "VEC3"
		},
		"accessor_color_Paper_f1114e2e-eb8d-4fde-915a-6e653b54e9f5_0_i0": {
			"bufferView": "vec4BufferView",
			"byteOffset": 79872,
			"byteStride": 16,
			"componentType": 5126,
			"count": 928,
			"type": "VEC4"
		},
		"accessor_tangent_Paper_f1114e2e-eb8d-4fde-915a-6e653b54e9f5_0_i0": {
			"bufferView": "vec4BufferView",
			"byteOffset": 94720,
			"byteStride": 16,
			"componentType": 5126,
			"count": 928,
			"max": [ 0.999907494, 0.834504128, 0.999731302, 1 ],
			"min": [ -0.999251962, -0.796272635, -0.99979049, 1 ],
			"type": "VEC4"
		},
		"accessor_uv0_Paper_f1114e2e-eb8d-4fde-915a-6e653b54e9f5_0_i0": {
			"bufferView": "vec2BufferView",
			"byteOffset": 19968,
			"byteStride": 8,
			"componentType": 5126,
			"count": 928,
			"max": [ 3.21036029, 1 ],
			"min": [ 0.0560407564, 0 ],
			"type": "VEC2"
		},
		"accessor_indices_0_Paper_f1114e2e-eb8d-4fde-915a-6e653b54e9f5_0_i0": {
			"bufferView": "ushortBufferView",
			"byteOffset": 13512,
			"byteStride": 0,
			"componentType": 5123,
			"count": 2382,
			"max": [ 927 ],
			"min": [ 0 ],
			"type": "SCALAR"
		},
		"accessor_position_CelVinyl_700f3aa8-9a7c-2384-8b8a-ea028905dd8c_0_i0": {
			"bufferView": "vec3BufferView",
			"byteOffset": 82176,
			"byteStride": 12,
			"componentType": 5126,
			"count": 518,
			"max": [ -0.0799611062, 0.979624212, 0.445372403 ],
			"min": [ -0.363285661, 0.914078891, 0.0750162825 ],
			"type": "VEC3"
		},
		"accessor_normal_CelVinyl_700f3aa8-9a7c-2384-8b8a-ea028905dd8c_0_i0": {
			"bufferView": "vec3BufferView",
			"byteOffset": 88392,
			"byteStride": 12,
			"componentType": 5126,
			"count": 518,
			"max": [ 0.373631001, 0.999901235, 0.896512687 ],
			"min": [ -0.85455972, -0.506016672, -0.271916717 ],
			"type": "VEC3"
		},
		"accessor_color_CelVinyl_700f3aa8-9a7c-2384-8b8a-ea028905dd8c_0_i0": {
			"bufferView": "vec4BufferView",
			"byteOffset": 109568,
			"byteStride": 16,
			"componentType": 5126,
			"count": 518,
			"type": "VEC4"
		},
		"accessor_tangent_CelVinyl_700f3aa8-9a7c-2384-8b8a-ea028905dd8c_0_i0": {
			"bufferView": "vec4BufferView",
			"byteOffset": 117856,
			"byteStride": 16,
			"componentType": 5126,
			"count": 518,
			"max": [ 0.780056715, 0.976424873, 0.368225396, 1 ],
			"min": [ -0.968107224, -0.348604232, -0.999778807, 1 ],
			"type": "VEC4"
		},
		"accessor_uv0_CelVinyl_700f3aa8-9a7c-2384-8b8a-ea028905dd8c_0_i0": {
			"bufferView": "vec2BufferView",
			"byteOffset": 27392,
			"byteStride": 8,
			"componentType": 5126,
			"count": 518,
			"max": [ 1, 1 ],
			"min": [ 0, 0 ],
			"type": "VEC2"
		},
		"accessor_indices_0_CelVinyl_700f3aa8-9a7c-2384-8b8a-ea028905dd8c_0_i0": {
			"bufferView": "ushortBufferView",
			"byteOffset": 18276,
			"byteStride": 0,
			"componentType": 5123,
			"count": 1494,
			"max": [ 517 ],
			"min": [ 0 ],
			"type": "SCALAR"
		}
	},
	"bufferViews": {
		"ushortBufferView": {
			"buffer": "buffer_sketch",
			"byteLength": 21264,
			"byteOffset": 0,
			"target": 34963
		},
		"vec2BufferView": {
			"buffer": "buffer_sketch",
			"byteLength": 31536,
			"byteOffset": 21264,
			"target": 34962
		},
		"vec3BufferView": {
			"buffer": "buffer_sketch",
			"byteLength": 94608,
			"byteOffset": 52800,
			"target": 34962
		},
		"vec4BufferView": {
			"buffer": "buffer_sketch",
			"byteLength": 126144,
			"byteOffset": 147408,
			"target": 34962
		}
	},
	"meshes": {
		"mesh_Marker_429ed64a-4e97-4466-84d3-145a861ef684_0_i0": {
			"name": "mesh_Marker_429ed64a-4e97-4466-84d3-145a861ef684_0_i0",
			"primitives": [
				{
					"attributes": {
						"POSITION": "accessor_position_Marker_429ed64a-4e97-4466-84d3-145a861ef684_0_i0",
						"NORMAL": "accessor_normal_Marker_429ed64a-4e97-4466-84d3-145a861ef684_0_i0",
						"COLOR": "accessor_color_Marker_429ed64a-4e97-4466-84d3-145a861ef684_0_i0",
						"TANGENT": "accessor_tangent_Marker_429ed64a-4e97-4466-84d3-145a861ef684_0_i0",
						"TEXCOORD_0": "accessor_uv0_Marker_429ed64a-4e97-4466-84d3-145a861ef684_0_i0"
					},
					"indices": "accessor_indices_0_Marker_429ed64a-4e97-4466-84d3-145a861ef684_0_i0",
					"material": "material_429ed64a-4e97-4466-84d3-145a861ef684",
					"mode": 4
				}
			]
		},
		"mesh_Paper_f1114e2e-eb8d-4fde-915a-6e653b54e9f5_0_i0": {
			"name": "mesh_Paper_f1114e2e-eb8d-4fde-915a-6e653b54e9f5_0_i0",
			"primitives": [
				{
					"attributes": {
						"POSITION": "accessor_position_Paper_f1114e2e-eb8d-4fde-915a-6e653b54e9f5_0_i0",
						"NORMAL": "accessor_normal_Paper_f1114e2e-eb8d-4fde-915a-6e653b54e9f5_0_i0",
						"COLOR": "accessor_color_Paper_f1114e2e-eb8d-4fde-915a-6e653b54e9f5_0_i0",
						"TANGENT": "accessor_tangent_Paper_f1114e2e-eb8d-4fde-915a-6e653b54e9f5_0_i0",
						"TEXCOORD_0": "accessor_uv0_Paper_f1114e2e-eb8d-4fde-915a-6e653b54e9f5_0_i0"
					},
					"indices": "accessor_indices_0_Paper_f1114e2e-eb8d-4fde-915a-6e653b54e9f5_0_i0",
					"material": "material_f1114e2e-eb8d-4fde-915a-6e653b54e9f5",
					"mode": 4
				}
			]
		},
		"mesh_CelVinyl_700f3aa8-9a7c-2384-8b8a-ea028905dd8c_0_i0": {
			"name": "mesh_CelVinyl_700f3aa8-9a7c-2384-8b8a-ea028905dd8c_0_i0",
			"primitives": [
				{
					"attributes": {
						"POSITION": "accessor_position_CelVinyl_700f3aa8-9a7c-2384-8b8a-ea028905dd8c_0_i0",
						"NORMAL": "accessor_normal_CelVinyl_700f3aa8-9a7c-2384-8b8a-ea028905dd8c_0_i0",
						"COLOR": "accessor_color_CelVinyl_700f3aa8-9a7c-2384-8b8a-ea028905dd8c_0_i0",
						"TANGENT": "accessor_tangent_CelVinyl_700f3aa8-9a7c-2384-8b8a-ea028905dd8c_0_i0",
						"TEXCOORD_0": "accessor_uv0_CelVinyl_700f3aa8-9a7c-2384-8b8a-ea028905dd8c_0_i0"
					},
					"indices": "accessor_indices_0_CelVinyl_700f3aa8-9a7c-2384-8b8a-ea028905dd8c_0_i0",
					"material": "material_700f3aa8-9a7c-2384-8b8a-ea028905dd8c",
					"mode": 4
				}
			]
		}
	},
	"shaders": {
		"vertex_429ed64a-4e97-4466-84d3-145a861ef684": {
			"type": 35633,
			"uri": "https://www.tiltbrush.com/shaders/brushes/Marker-429ed64a-4e97-4466-84d3-145a861ef684/Marker-429ed64a-4e97-4466-84d3-145a861ef684-v10.0-vertex.glsl"
		},
		"fragment_429ed64a-4e97-4466-84d3-145a861ef684": {
			"type": 35632,
			"uri": "https://www.tiltbrush.com/shaders/brushes/Marker-429ed64a-4e97-4466-84d3-145a861ef684/Marker-429ed64a-4e97-4466-84d3-145a861ef684-v10.0-fragment.glsl"
		},
		"vertex_f1114e2e-eb8d-4fde-915a-6e653b54e9f5": {
			"type": 35633,
			"uri": "https://www.tiltbrush.com/shaders/brushes/Paper-f1114e2e-eb8d-4fde-915a-6e653b54e9f5/Paper-f1114e2e-eb8d-4fde-915a-6e653b54e9f5-v10.0-vertex.glsl"
		},
		"fragment_f1114e2e-eb8d-4fde-915a-6e653b54e9f5": {
			"type": 35632,
			"uri": "https://www.tiltbrush.com/shaders/brushes/Paper-f1114e2e-eb8d-4fde-915a-6e653b54e9f5/Paper-f1114e2e-eb8d-4fde-915a-6e653b54e9f5-v10.0-fragment.glsl"
		},
		"vertex_700f3aa8-9a7c-2384-8b8a-ea028905dd8c": {
			"type": 35633,
			"uri": "https://www.tiltbrush.com/shaders/brushes/CelVinyl-700f3aa8-9a7c-2384-8b8a-ea028905dd8c/CelVinyl-700f3aa8-9a7c-2384-8b8a-ea028905dd8c-v10.0-vertex.glsl"
		},
		"fragment_700f3aa8-9a7c-2384-8b8a-ea028905dd8c": {
			"type": 35632,
			"uri": "https://www.tiltbrush.com/shaders/brushes/CelVinyl-700f3aa8-9a7c-2384-8b8a-ea028905dd8c/CelVinyl-700f3aa8-9a7c-2384-8b8a-ea028905dd8c-v10.0-fragment.glsl"
		}
	},
	"programs": {
		"program_429ed64a-4e97-4466-84d3-145a861ef684": {
			"attributes": [
				"a_position",
				"a_normal",
				"a_color",
				"a_tangent",
				"a_texcoord0"
			],
			"vertexShader": "vertex_429ed64a-4e97-4466-84d3-145a861ef684",
			"fragmentShader": "fragment_429ed64a-4e97-4466-84d3-145a861ef684"
		},
		"program_f1114e2e-eb8d-4fde-915a-6e653b54e9f5": {
			"attributes": [
				"a_position",
				"a_normal",
				"a_color",
				"a_tangent",
				"a_texcoord0"
			],
			"vertexShader": "vertex_f1114e2e-eb8d-4fde-915a-6e653b54e9f5",
			"fragmentShader": "fragment_f1114e2e-eb8d-4fde-915a-6e653b54e9f5"
		},
		"program_700f3aa8-9a7c-2384-8b8a-ea028905dd8c": {
			"attributes": [
				"a_position",
				"a_normal",
				"a_color",
				"a_tangent",
				"a_texcoord0"
			],
			"vertexShader": "vertex_700f3aa8-9a7c-2384-8b8a-ea028905dd8c",
			"fragmentShader": "fragment_700f3aa8-9a7c-2384-8b8a-ea028905dd8c"
		}
	},
	"techniques": {
		"technique_429ed64a-4e97-4466-84d3-145a861ef684": {
			"program": "program_429ed64a-4e97-4466-84d3-145a861ef684",
			"parameters": {
				"position": {
					"type": 35665,
					"semantic": "POSITION"
				},
				"normal": {
					"type": 35665,
					"semantic": "NORMAL"
				},
				"color": {
					"type": 35666,
					"semantic": "COLOR"
				},
				"tangent": {
					"type": 35666,
					"semantic": "TANGENT"
				},
				"texcoord0": {
					"type": 35664,
					"semantic": "TEXCOORD_0"
				},
				"modelViewMatrix": {
					"type": 35676,
					"semantic": "MODELVIEW"
				},
				"projectionMatrix": {
					"type": 35676,
					"semantic": "PROJECTION"
				},
				"normalMatrix": {
					"type": 35675,
					"semantic": "MODELVIEWINVERSETRANSPOSE"
				},
				"SceneLight_0_matrix": {
					"type": 35676,
					"semantic": "MODELVIEW",
					"node": "node_SceneLight_0_i1"
				},
				"SceneLight_0_color": {
					"type": 35666,
					"node": "node_SceneLight_0_i1"
				},
				"SceneLight_1_matrix": {
					"type": 35676,
					"semantic": "MODELVIEW",
					"node": "node_SceneLight_1_i2"
				},
				"SceneLight_1_color": {
					"type": 35666,
					"node": "node_SceneLight_1_i2"
				},
				"ambient_light_color": {
					"type": 35666
				},
				"Cutoff": {
					"type": 5126
				},
				"MainTex_TexelSize": {
					"type": 35666
				},
				"MainTex": {
					"type": 35678
				}
			},
			"attributes": {
				"a_position": "position",
				"a_normal": "normal",
				"a_color": "color",
				"a_tangent": "tangent",
				"a_texcoord0": "texcoord0"
			},
			"uniforms": {
				"u_modelViewMatrix": "modelViewMatrix",
				"u_projectionMatrix": "projectionMatrix",
				"u_normalMatrix": "normalMatrix",
				"u_SceneLight_0_matrix": "SceneLight_0_matrix",
				"u_SceneLight_0_color": "SceneLight_0_color",
				"u_SceneLight_1_matrix": "SceneLight_1_matrix",
				"u_SceneLight_1_color": "SceneLight_1_color",
				"u_ambient_light_color": "ambient_light_color",
				"u_Cutoff": "Cutoff",
				"u_MainTex_TexelSize": "MainTex_TexelSize",
				"u_MainTex": "MainTex"
			},
			"states": {
				"enable": [
					2929
				],
				"functions": {
					"depthMask": [true]
				}
			}
		},
		"technique_f1114e2e-eb8d-4fde-915a-6e653b54e9f5": {
			"program": "program_f1114e2e-eb8d-4fde-915a-6e653b54e9f5",
			"parameters": {
				"position": {
					"type": 35665,
					"semantic": "POSITION"
				},
				"normal": {
					"type": 35665,
					"semantic": "NORMAL"
				},
				"color": {
					"type": 35666,
					"semantic": "COLOR"
				},
				"tangent": {
					"type": 35666,
					"semantic": "TANGENT"
				},
				"texcoord0": {
					"type": 35664,
					"semantic": "TEXCOORD_0"
				},
				"modelViewMatrix": {
					"type": 35676,
					"semantic": "MODELVIEW"
				},
				"projectionMatrix": {
					"type": 35676,
					"semantic": "PROJECTION"
				},
				"normalMatrix": {
					"type": 35675,
					"semantic": "MODELVIEWINVERSETRANSPOSE"
				},
				"SceneLight_0_matrix": {
					"type": 35676,
					"semantic": "MODELVIEW",
					"node": "node_SceneLight_0_i1"
				},
				"SceneLight_0_color": {
					"type": 35666,
					"node": "node_SceneLight_0_i1"
				},
				"SceneLight_1_matrix": {
					"type": 35676,
					"semantic": "MODELVIEW",
					"node": "node_SceneLight_1_i2"
				},
				"SceneLight_1_color": {
					"type": 35666,
					"node": "node_SceneLight_1_i2"
				},
				"ambient_light_color": {
					"type": 35666
				},
				"Shininess": {
					"type": 5126
				},
				"Cutoff": {
					"type": 5126
				},
				"Color": {
					"type": 35666
				},
				"SpecColor": {
					"type": 35666
				},
				"MainTex_TexelSize": {
					"type": 35666
				},
				"BumpMap_TexelSize": {
					"type": 35666
				},
				"MainTex": {
					"type": 35678
				},
				"BumpMap": {
					"type": 35678
				}
			},
			"attributes": {
				"a_position": "position",
				"a_normal": "normal",
				"a_color": "color",
				"a_tangent": "tangent",
				"a_texcoord0": "texcoord0"
			},
			"uniforms": {
				"u_modelViewMatrix": "modelViewMatrix",
				"u_projectionMatrix": "projectionMatrix",
				"u_normalMatrix": "normalMatrix",
				"u_SceneLight_0_matrix": "SceneLight_0_matrix",
				"u_SceneLight_0_color": "SceneLight_0_color",
				"u_SceneLight_1_matrix": "SceneLight_1_matrix",
				"u_SceneLight_1_color": "SceneLight_1_color",
				"u_ambient_light_color": "ambient_light_color",
				"u_Shininess": "Shininess",
				"u_Cutoff": "Cutoff",
				"u_Color": "Color",
				"u_SpecColor": "SpecColor",
				"u_MainTex_TexelSize": "MainTex_TexelSize",
				"u_BumpMap_TexelSize": "BumpMap_TexelSize",
				"u_MainTex": "MainTex",
				"u_BumpMap": "BumpMap"
			},
			"states": {
				"enable": [
					2929
				],
				"functions": {
					"depthMask": [true]
				}
			}
		},
		"technique_700f3aa8-9a7c-2384-8b8a-ea028905dd8c": {
			"program": "program_700f3aa8-9a7c-2384-8b8a-ea028905dd8c",
			"parameters": {
				"position": {
					"type": 35665,
					"semantic": "POSITION"
				},
				"normal": {
					"type": 35665,
					"semantic": "NORMAL"
				},
				"color": {
					"type": 35666,
					"semantic": "COLOR"
				},
				"tangent": {
					"type": 35666,
					"semantic": "TANGENT"
				},
				"texcoord0": {
					"type": 35664,
					"semantic": "TEXCOORD_0"
				},
				"modelViewMatrix": {
					"type": 35676,
					"semantic": "MODELVIEW"
				},
				"projectionMatrix": {
					"type": 35676,
					"semantic": "PROJECTION"
				},
				"normalMatrix": {
					"type": 35675,
					"semantic": "MODELVIEWINVERSETRANSPOSE"
				},
				"SceneLight_0_matrix": {
					"type": 35676,
					"semantic": "MODELVIEW",
					"node": "node_SceneLight_0_i1"
				},
				"SceneLight_0_color": {
					"type": 35666,
					"node": "node_SceneLight_0_i1"
				},
				"SceneLight_1_matrix": {
					"type": 35676,
					"semantic": "MODELVIEW",
					"node": "node_SceneLight_1_i2"
				},
				"SceneLight_1_color": {
					"type": 35666,
					"node": "node_SceneLight_1_i2"
				},
				"ambient_light_color": {
					"type": 35666
				},
				"Cutoff": {
					"type": 5126
				},
				"Color": {
					"type": 35666
				},
				"MainTex_TexelSize": {
					"type": 35666
				},
				"MainTex": {
					"type": 35678
				}
			},
			"attributes": {
				"a_position": "position",
				"a_normal": "normal",
				"a_color": "color",
				"a_tangent": "tangent",
				"a_texcoord0": "texcoord0"
			},
			"uniforms": {
				"u_modelViewMatrix": "modelViewMatrix",
				"u_projectionMatrix": "projectionMatrix",
				"u_normalMatrix": "normalMatrix",
				"u_SceneLight_0_matrix": "SceneLight_0_matrix",
				"u_SceneLight_0_color": "SceneLight_0_color",
				"u_SceneLight_1_matrix": "SceneLight_1_matrix",
				"u_SceneLight_1_color": "SceneLight_1_color",
				"u_ambient_light_color": "ambient_light_color",
				"u_Cutoff": "Cutoff",
				"u_Color": "Color",
				"u_MainTex_TexelSize": "MainTex_TexelSize",
				"u_MainTex": "MainTex"
			},
			"states": {
				"enable": [
					2929
				],
				"functions": {
					"depthMask": [true]
				}
			}
		}
	},
	"samplers": {
		"sampler_LINEAR_LINEAR_MIPMAP_LINEAR_REPEAT": {
			"magFilter": 9729,
			"minFilter": 9987,
			"wrapS": 10497,
			"wrapT": 10497
		}
	},
	"textures": {
		"texture_429ed64a-4e97-4466-84d3-145a861ef684_MainTex": {
			"format": 6408,
			"internalFormat": 6408,
			"sampler": "sampler_LINEAR_LINEAR_MIPMAP_LINEAR_REPEAT",
			"source": "image_429ed64a-4e97-4466-84d3-145a861ef684_MainTex",
			"target": 3553,
			"type": 5121
		},
		"texture_f1114e2e-eb8d-4fde-915a-6e653b54e9f5_MainTex": {
			"format": 6408,
			"internalFormat": 6408,
			"sampler": "sampler_LINEAR_LINEAR_MIPMAP_LINEAR_REPEAT",
			"source": "image_f1114e2e-eb8d-4fde-915a-6e653b54e9f5_MainTex",
			"target": 3553,
			"type": 5121
		},
		"texture_f1114e2e-eb8d-4fde-915a-6e653b54e9f5_BumpMap": {
			"format": 6408,
			"internalFormat": 6408,
			"sampler": "sampler_LINEAR_LINEAR_MIPMAP_LINEAR_REPEAT",
			"source": "image_f1114e2e-eb8d-4fde-915a-6e653b54e9f5_BumpMap",
			"target": 3553,
			"type": 5121
		},
		"texture_700f3aa8-9a7c-2384-8b8a-ea028905dd8c_MainTex": {
			"format": 6408,
			"internalFormat": 6408,
			"sampler": "sampler_LINEAR_LINEAR_MIPMAP_LINEAR_REPEAT",
			"source": "image_700f3aa8-9a7c-2384-8b8a-ea028905dd8c_MainTex",
			"target": 3553,
			"type": 5121
		}
	},
	"images": {
		"image_429ed64a-4e97-4466-84d3-145a861ef684_MainTex": {
			"uri": "https://www.tiltbrush.com/shaders/brushes/Marker-429ed64a-4e97-4466-84d3-145a861ef684/Marker-429ed64a-4e97-4466-84d3-145a861ef684-v10.0-MainTex.png"
		},
		"image_f1114e2e-eb8d-4fde-915a-6e653b54e9f5_MainTex": {
			"uri": "https://www.tiltbrush.com/shaders/brushes/Paper-f1114e2e-eb8d-4fde-915a-6e653b54e9f5/Paper-f1114e2e-eb8d-4fde-915a-6e653b54e9f5-v10.0-MainTex.png"
		},
		"image_f1114e2e-eb8d-4fde-915a-6e653b54e9f5_BumpMap": {
			"uri": "https://www.tiltbrush.com/shaders/brushes/Paper-f1114e2e-eb8d-4fde-915a-6e653b54e9f5/Paper-f1114e2e-eb8d-4fde-915a-6e653b54e9f5-v10.0-BumpMap.png"
		},
		"image_700f3aa8-9a7c-2384-8b8a-ea028905dd8c_MainTex": {
			"uri": "https://www.tiltbrush.com/shaders/brushes/CelVinyl-700f3aa8-9a7c-2384-8b8a-ea028905dd8c/CelVinyl-700f3aa8-9a7c-2384-8b8a-ea028905dd8c-v10.0-MainTex.png"
		}
	},
	"materials": {
		"material_429ed64a-4e97-4466-84d3-145a861ef684": {
			"technique": "technique_429ed64a-4e97-4466-84d3-145a861ef684",
			"values": {
				"SceneLight_0_color": [0.7780392, 0.8156863, 0.9913726, 1],
				"SceneLight_1_color": [0.4282353, 0.4211765, 0.3458824, 1],
				"ambient_light_color": [0.3921569, 0.3921569, 0.3921569, 1],
				"Cutoff": 0.067,
				"MainTex_TexelSize": [0.015625, 0.00390625, 64, 256],
				"MainTex": "texture_429ed64a-4e97-4466-84d3-145a861ef684_MainTex"
			},
			"name": "material_429ed64a-4e97-4466-84d3-145a861ef684"
		},
		"material_f1114e2e-eb8d-4fde-915a-6e653b54e9f5": {
			"technique": "technique_f1114e2e-eb8d-4fde-915a-6e653b54e9f5",
			"values": {
				"SceneLight_0_color": [0.7780392, 0.8156863, 0.9913726, 1],
				"SceneLight_1_color": [0.4282353, 0.4211765, 0.3458824, 1],
				"ambient_light_color": [0.3921569, 0.3921569, 0.3921569, 1],
				"Shininess": 0.145,
				"Cutoff": 0.16,
				"Color": [1, 1, 1, 1],
				"SpecColor": [0.1411765, 0.1411765, 0.1411765, 1],
				"MainTex_TexelSize": [0.0009765625, 0.0078125, 1024, 128],
				"BumpMap_TexelSize": [0.0009765625, 0.0078125, 1024, 128],
				"MainTex": "texture_f1114e2e-eb8d-4fde-915a-6e653b54e9f5_MainTex",
				"BumpMap": "texture_f1114e2e-eb8d-4fde-915a-6e653b54e9f5_BumpMap"
			},
			"name": "material_f1114e2e-eb8d-4fde-915a-6e653b54e9f5"
		},
		"material_700f3aa8-9a7c-2384-8b8a-ea028905dd8c": {
			"technique": "technique_700f3aa8-9a7c-2384-8b8a-ea028905dd8c",
			"values": {
				"SceneLight_0_color": [0.7780392, 0.8156863, 0.9913726, 1],
				"SceneLight_1_color": [0.4282353, 0.4211765, 0.3458824, 1],
				"ambient_light_color": [0.3921569, 0.3921569, 0.3921569, 1],
				"Cutoff": 0.554,
				"Color": [1, 1, 1, 1],
				"MainTex_TexelSize": [0.001953125, 0.00390625, 512, 256],
				"MainTex": "texture_700f3aa8-9a7c-2384-8b8a-ea028905dd8c_MainTex"
			},
			"name": "material_700f3aa8-9a7c-2384-8b8a-ea028905dd8c"
		}
	},
	"nodes": {
		"node_Marker_429ed64a-4e97-4466-84d3-145a861ef684_0_i0": {
			"name": "node_Marker_429ed64a-4e97-4466-84d3-145a861ef684_0_i0",
			"meshes": [
				"mesh_Marker_429ed64a-4e97-4466-84d3-145a861ef684_0_i0"
			],
			"matrix": [1, 0, 0, 0, 0, 1, 0, 0, 0, 0, 1, 0, 0, 0, 0, 1]
		},
		"node_SceneLight_0_i1": {
			"name": "node_SceneLight_0_i1",
			"light": "SceneLight_0",
			"matrix": [0.898794, 0.2191856, -0.3796406, 0, -0.4383712, 0.449397, -0.7783785, 0, -1.490116E-08, 0.8660254, 0.4999999, 0, 0, 0.07816665, 0.0220875, 1]
		},
		"node_SceneLight_1_i2": {
			"name": "node_SceneLight_1_i2",
			"light": "SceneLight_1",
			"matrix": [0.7660446, -0.4924039, -0.4131757, 0, -0.6427875, -0.5868244, -0.4924039, 0, 2.980232E-08, 0.6427875, -0.7660447, 0, 3.874302E-09, 0.0636562, -0.06020541, 1]
		},
		"node_Paper_f1114e2e-eb8d-4fde-915a-6e653b54e9f5_0_i0": {
			"name": "node_Paper_f1114e2e-eb8d-4fde-915a-6e653b54e9f5_0_i0",
			"meshes": [
				"mesh_Paper_f1114e2e-eb8d-4fde-915a-6e653b54e9f5_0_i0"
			],
			"matrix": [1, 0, 0, 0, 0, 1, 0, 0, 0, 0, 1, 0, 0, 0, 0, 1]
		},
		"node_CelVinyl_700f3aa8-9a7c-2384-8b8a-ea028905dd8c_0_i0": {
			"name": "node_CelVinyl_700f3aa8-9a7c-2384-8b8a-ea028905dd8c_0_i0",
			"meshes": [
				"mesh_CelVinyl_700f3aa8-9a7c-2384-8b8a-ea028905dd8c_0_i0"
			],
			"matrix": [1, 0, 0, 0, 0, 1, 0, 0, 0, 0, 1, 0, 0, 0, 0, 1]
		}
	},
	"scene": "defaultScene",
	"scenes": {
		"defaultScene": {
			"nodes": [
				"node_Marker_429ed64a-4e97-4466-84d3-145a861ef684_0_i0",
				"node_SceneLight_0_i1",
				"node_SceneLight_1_i2",
				"node_Paper_f1114e2e-eb8d-4fde-915a-6e653b54e9f5_0_i0",
				"node_CelVinyl_700f3aa8-9a7c-2384-8b8a-ea028905dd8c_0_i0"
			],
			"extras": {
				"TB_EnvironmentGuid": "ab080599-e465-4a6d-8587-43bf495af68b",
				"TB_Environment": "Standard",
				"TB_UseGradient": "true",
				"TB_SkyColorA": "0.2745098, 0.2745098, 0.3176471",
				"TB_SkyColorB": "0.03529412, 0.03529412, 0.08627451",
				"TB_SkyGradientDirection": "0, 1, 0",
				"TB_FogColor": "0.1647059, 0.1647059, 0.2078431",
				"TB_FogDensity": "0.0025",
				"TB_SkyColorHorizon": "0.2745098, 0.2745098, 0.3176471",
				"TB_SkyColorZenith": "0.03529412, 0.03529412, 0.08627451"
			}
		}
	}
}