{
	"asset": {
		"generator": "Tilt Brush 22.3.bfe37158d",
		"version": "1.1",
		"copyright": "Unknown."
	},
	"buffers": {
		"buffer_sketch": {
			"byteLength": 372720,
			"type": "arraybuffer",
			"uri": "sketch.bin"
		}
	},
	"accessors": {
		"accessor_position_Paper_f1114e2e-eb8d-4fde-915a-6e653b54e9f5_0_i0": {
			"bufferView": "vec3BufferView",
			"byteOffset": 0,
			"byteStride": 12,
			"componentType": 5126,
			"count": 150,
			"max": [ 0.435939312, 1.48018479, 0.0283077564 ],
			"min": [ -0.257284671, 0.751422822, -0.145426393 ],
			"type": "VEC3"
		},
		"accessor_normal_Paper_f1114e2e-eb8d-4fde-915a-6e653b54e9f5_0_i0": {
			"bufferView": "vec3BufferView",
			"byteOffset": 1800,
			"byteStride": 12,
			"componentType": 5126,
			"count": 150,
			"max": [ 0.356067806, 0.570351541, 0.999036312 ],
			"min": [ -0.442557871, -0.327243119, 0.766715586 ],
			"type": "VEC3"
		},
		"accessor_color_Paper_f1114e2e-eb8d-4fde-915a-6e653b54e9f5_0_i0": {
			"bufferView": "vec4BufferView",
			"byteOffset": 0,
			"byteStride": 16,
			"componentType": 5126,
			"count": 150,
			"type": "VEC4"
		},
		"accessor_tangent_Paper_f1114e2e-eb8d-4fde-915a-6e653b54e9f5_0_i0": {
			"bufferView": "vec4BufferView",
			"byteOffset": 2400,
			"byteStride": 16,
			"componentType": 5126,
			"count": 150,
			"max": [ 0.988996267, 0.981070578, 0.245897651, 1 ],
			"min": [ -0.99475193, -0.99948436, -0.353359401, 1 ],
			"type": "VEC4"
		},
		"accessor_uv0_Paper_f1114e2e-eb8d-4fde-915a-6e653b54e9f5_0_i0": {
			"bufferView": "vec2BufferView",
			"byteOffset": 0,
			"byteStride": 8,
			"componentType": 5126,
			"count": 150,
			"max": [ 2.69883776, 1 ],
			"min": [ 0.236665636, 0 ],
			"type": "VEC2"
		},
		"accessor_indices_0_Paper_f1114e2e-eb8d-4fde-915a-6e653b54e9f5_0_i0": {
			"bufferView": "ushortBufferView",
			"byteOffset": 0,
			"byteStride": 0,
			"componentType": 5123,
			"count": 444,
			"max": [ 149 ],
			"min": [ 0 ],
			"type": "SCALAR"
		},
		"accessor_position_MatteHull_79348357-432d-4746-8e29-0e25c112e3aa_0_i0": {
			"bufferView": "vec3BufferView",
			"byteOffset": 3600,
			"byteStride": 12,
			"componentType": 5126,
			"count": 3954,
			"max": [ 0.35864082, 1.38358724, 0.0159249492 ],
			"min": [ -0.15792571, 0.815422535, -0.178499386 ],
			"type": "VEC3"
		},
		"accessor_normal_MatteHull_79348357-432d-4746-8e29-0e25c112e3aa_0_i0": {
			"bufferView": "vec3BufferView",
			"byteOffset": 51048,
			"byteStride": 12,
			"componentType": 5126,
			"count": 3954,
			"max": [ 0.977153659, 0.73759526, 0.983988464 ],
			"min": [ -0.973492146, -0.736679435, -0.977048337 ],
			"type": "VEC3"
		},
		"accessor_color_MatteHull_79348357-432d-4746-8e29-0e25c112e3aa_0_i0": {
			"bufferView": "vec4BufferView",
			"byteOffset": 4800,
			"byteStride": 16,
			"componentType": 5126,
			"count": 3954,
			"type": "VEC4"
		},
		"accessor_uv0_MatteHull_79348357-432d-4746-8e29-0e25c112e3aa_0_i0": {
			"bufferView": "vec3BufferView",
			"byteOffset": 98496,
			"byteStride": 12,
			"componentType": 5126,
			"count": 3954,
			"max": [ 0, 1, 0.0679901764 ],
			"min": [ 0, 1, 0.0679901764 ],
			"type": "VEC3"
		},
		"accessor_indices_0_MatteHull_79348357-432d-4746-8e29-0e25c112e3aa_0_i0": {
			"bufferView": "ushortBufferView",
			"byteOffset": 888,
			"byteStride": 0,
			"componentType": 5123,
			"count": 3954,
			"max": [ 3953 ],
			"min": [ 0 ],
			"type": "SCALAR"
		},
		"accessor_position_Toon_4391385a-df73-4396-9e33-31e4e4930b27_0_i0": {
			"bufferView": "vec3BufferView",
			"byteOffset": 145944,
			"byteStride": 12,
			"componentType": 5126,
			"count": 1923,
			"max": [ 0.330454528, 1.3851341, 0.0457744375 ],
			"min": [ -0.186503366, 0.839052141, -0.10489706 ],
			"type": "VEC3"
		},
		"accessor_normal_Toon_4391385a-df73-4396-9e33-31e4e4930b27_0_i0": {
			"bufferView": "vec3BufferView",
			"byteOffset": 169020,
			"byteStride": 12,
			"componentType": 5126,
			"count": 1923,
			"max": [ 0.975282431, 0.996927023, 0.974374294 ],
			"min": [ -0.975282431, -0.996927023, -0.974374294 ],
			"type": "VEC3"
		},
		"accessor_color_Toon_4391385a-df73-4396-9e33-31e4e4930b27_0_i0": {
			"bufferView": "vec4BufferView",
			"byteOffset": 68064,
			"byteStride": 16,
			"componentType": 5126,
			"count": 1923,
			"type": "VEC4"
		},
		"accessor_tangent_Toon_4391385a-df73-4396-9e33-31e4e4930b27_0_i0": {
			"bufferView": "vec4BufferView",
			"byteOffset": 98832,
			"byteStride": 16,
			"componentType": 5126,
			"count": 1923,
			"max": [ 0.987204134, 0.99908936, 0.989142656, 1 ],
			"min": [ -0.987204134, -0.996880651, -0.989142716, 1 ],
			"type": "VEC4"
		},
		"accessor_uv0_Toon_4391385a-df73-4396-9e33-31e4e4930b27_0_i0": {
			"bufferView": "vec3BufferView",
			"byteOffset": 192096,
			"byteStride": 12,
			"componentType": 5126,
			"count": 1923,
			"max": [ 1.32234335, 1, 0.0170700662 ],
			"min": [ -0.00499527808, 0, 0 ],
			"type": "VEC3"
		},
		"accessor_indices_0_Toon_4391385a-df73-4396-9e33-31e4e4930b27_0_i0": {
			"bufferView": "ushortBufferView",
			"byteOffset": 8796,
			"byteStride": 0,
			"componentType": 5123,
			"count": 8976,
			"max": [ 1922 ],
			"min": [ 0 ],
			"type": "SCALAR"
		}
	},
	"bufferViews": {
		"ushortBufferView": {
			"buffer": "buffer_sketch",
			"byteLength": 26748,
			"byteOffset": 0,
			"target": 34963
		},
		"vec2BufferView": {
			"buffer": "buffer_sketch",
			"byteLength": 1200,
			"byteOffset": 26748,
			"target": 34962
		},
		"vec3BufferView": {
			"buffer": "buffer_sketch",
			"byteLength": 215172,
			"byteOffset": 27948,
			"target": 34962
		},
		"vec4BufferView": {
			"buffer": "buffer_sketch",
			"byteLength": 129600,
			"byteOffset": 243120,
			"target": 34962
		}
	},
	"meshes": {
		"mesh_Paper_f1114e2e-eb8d-4fde-915a-6e653b54e9f5_0_i0": {
			"name": "mesh_Paper_f1114e2e-eb8d-4fde-915a-6e653b54e9f5_0_i0",
			"primitives": [
				{
					"attributes": {
						"POSITION": "accessor_position_Paper_f1114e2e-eb8d-4fde-915a-6e653b54e9f5_0_i0",
						"NORMAL": "accessor_normal_Paper_f1114e2e-eb8d-4fde-915a-6e653b54e9f5_0_i0",
						"COLOR": "accessor_color_Paper_f1114e2e-eb8d-4fde-915a-6e653b54e9f5_0_i0",
						"TANGENT": "accessor_tangent_Paper_f1114e2e-eb8d-4fde-915a-6e653b54e9f5_0_i0",
						"TEXCOORD_0": "accessor_uv0_Paper_f1114e2e-eb8d-4fde-915a-6e653b54e9f5_0_i0"
					},
					"indices": "accessor_indices_0_Paper_f1114e2e-eb8d-4fde-915a-6e653b54e9f5_0_i0",
					"material": "material_f1114e2e-eb8d-4fde-915a-6e653b54e9f5",
					"mode": 4
				}
			]
		},
		"mesh_MatteHull_79348357-432d-4746-8e29-0e25c112e3aa_0_i0": {
			"name": "mesh_MatteHull_79348357-432d-4746-8e29-0e25c112e3aa_0_i0",
			"primitives": [
				{
					"attributes": {
						"POSITION": "accessor_position_MatteHull_79348357-432d-4746-8e29-0e25c112e3aa_0_i0",
						"NORMAL": "accessor_normal_MatteHull_79348357-432d-4746-8e29-0e25c112e3aa_0_i0",
						"COLOR": "accessor_color_MatteHull_79348357-432d-4746-8e29-0e25c112e3aa_0_i0",
						"TEXCOORD_0": "accessor_uv0_MatteHull_79348357-432d-4746-8e29-0e25c112e3aa_0_i0"
					},
					"indices": "accessor_indices_0_MatteHull_79348357-432d-4746-8e29-0e25c112e3aa_0_i0",
					"material": "material_79348357-432d-4746-8e29-0e25c112e3aa",
					"mode": 4
				}
			]
		},
		"mesh_Toon_4391385a-df73-4396-9e33-31e4e4930b27_0_i0": {
			"name": "mesh_Toon_4391385a-df73-4396-9e33-31e4e4930b27_0_i0",
			"primitives": [
				{
					"attributes": {
						"POSITION": "accessor_position_Toon_4391385a-df73-4396-9e33-31e4e4930b27_0_i0",
						"NORMAL": "accessor_normal_Toon_4391385a-df73-4396-9e33-31e4e4930b27_0_i0",
						"COLOR": "accessor_color_Toon_4391385a-df73-4396-9e33-31e4e4930b27_0_i0",
						"TANGENT": "accessor_tangent_Toon_4391385a-df73-4396-9e33-31e4e4930b27_0_i0",
						"TEXCOORD_0": "accessor_uv0_Toon_4391385a-df73-4396-9e33-31e4e4930b27_0_i0"
					},
					"indices": "accessor_indices_0_Toon_4391385a-df73-4396-9e33-31e4e4930b27_0_i0",
					"material": "material_4391385a-df73-4396-9e33-31e4e4930b27",
					"mode": 4
				}
			]
		}
	},
	"shaders": {
		"vertex_f1114e2e-eb8d-4fde-915a-6e653b54e9f5": {
			"type": 35633,
			"uri": "https://www.tiltbrush.com/shaders/brushes/Paper-f1114e2e-eb8d-4fde-915a-6e653b54e9f5/Paper-f1114e2e-eb8d-4fde-915a-6e653b54e9f5-v10.0-vertex.glsl"
		},
		"fragment_f1114e2e-eb8d-4fde-915a-6e653b54e9f5": {
			"type": 35632,
			"uri": "https://www.tiltbrush.com/shaders/brushes/Paper-f1114e2e-eb8d-4fde-915a-6e653b54e9f5/Paper-f1114e2e-eb8d-4fde-915a-6e653b54e9f5-v10.0-fragment.glsl"
		},
		"vertex_79348357-432d-4746-8e29-0e25c112e3aa": {
			"type": 35633,
			"uri": "https://www.tiltbrush.com/shaders/brushes/MatteHull-79348357-432d-4746-8e29-0e25c112e3aa/MatteHull-79348357-432d-4746-8e29-0e25c112e3aa-v10.0-vertex.glsl"
		},
		"fragment_79348357-432d-4746-8e29-0e25c112e3aa": {
			"type": 35632,
			"uri": "https://www.tiltbrush.com/shaders/brushes/MatteHull-79348357-432d-4746-8e29-0e25c112e3aa/MatteHull-79348357-432d-4746-8e29-0e25c112e3aa-v10.0-fragment.glsl"
		},
		"vertex_4391385a-df73-4396-9e33-31e4e4930b27": {
			"type": 35633,
			"uri": "https://www.tiltbrush.com/shaders/brushes/Toon-4391385a-df73-4396-9e33-31e4e4930b27/Toon-4391385a-df73-4396-9e33-31e4e4930b27-v10.0-vertex.glsl"
		},
		"fragment_4391385a-df73-4396-9e33-31e4e4930b27": {
			"type": 35632,
			"uri": "https://www.tiltbrush.com/shaders/brushes/Toon-4391385a-df73-4396-9e33-31e4e4930b27/Toon-4391385a-df73-4396-9e33-31e4e4930b27-v10.0-fragment.glsl"
		}
	},
	"programs": {
		"program_f1114e2e-eb8d-4fde-915a-6e653b54e9f5": {
			"attributes": [
				"a_position",
				"a_normal",
				"a_color",
				"a_tangent",
				"a_texcoord0"
			],
			"vertexShader": "vertex_f1114e2e-eb8d-4fde-915a-6e653b54e9f5",
			"fragmentShader": "fragment_f1114e2e-eb8d-4fde-915a-6e653b54e9f5"
		},
		"program_79348357-432d-4746-8e29-0e25c112e3aa": {
			"attributes": [
				"a_position",
				"a_normal",
				"a_color",
				"a_texcoord0"
			],
			"vertexShader": "vertex_79348357-432d-4746-8e29-0e25c112e3aa",
			"fragmentShader": "fragment_79348357-432d-4746-8e29-0e25c112e3aa"
		},
		"program_4391385a-df73-4396-9e33-31e4e4930b27": {
			"attributes": [
				"a_position",
				"a_normal",
				"a_color",
				"a_tangent",
				"a_texcoord0"
			],
			"vertexShader": "vertex_4391385a-df73-4396-9e33-31e4e4930b27",
			"fragmentShader": "fragment_4391385a-df73-4396-9e33-31e4e4930b27"
		}
	},
	"techniques": {
		"technique_f1114e2e-eb8d-4fde-915a-6e653b54e9f5": {
			"program": "program_f1114e2e-eb8d-4fde-915a-6e653b54e9f5",
			"parameters": {
				"position": {
					"type": 35665,
					"semantic": "POSITION"
				},
				"normal": {
					"type": 35665,
					"semantic": "NORMAL"
				},
				"color": {
					"type": 35666,
					"semantic": "COLOR"
				},
				"tangent": {
					"type": 35666,
					"semantic": "TANGENT"
				},
				"texcoord0": {
					"type": 35664,
					"semantic": "TEXCOORD_0"
				},
				"modelViewMatrix": {
					"type": 35676,
					"semantic": "MODELVIEW"
				},
				"projectionMatrix": {
					"type": 35676,
					"semantic": "PROJECTION"
				},
				"normalMatrix": {
					"type": 35675,
					"semantic": "MODELVIEWINVERSETRANSPOSE"
				},
				"SceneLight_0_matrix": {
					"type": 35676,
					"semantic": "MODELVIEW",
					"node": "node_SceneLight_0_i1"
				},
				"SceneLight_0_color": {
					"type": 35666,
					"node": "node_SceneLight_0_i1"
				},
				"SceneLight_1_matrix": {
					"type": 35676,
					"semantic": "MODELVIEW",
					"node": "node_SceneLight_1_i2"
				},
				"SceneLight_1_color": {
					"type": 35666,
					"node": "node_SceneLight_1_i2"
				},
				"ambient_light_color": {
					"type": 35666
				},
				"Shininess": {
					"type": 5126
				},
				"Cutoff": {
					"type": 5126
				},
				"Color": {
					"type": 35666
				},
				"SpecColor": {
					"type": 35666
				},
				"MainTex_TexelSize": {
					"type": 35666
				},
				"BumpMap_TexelSize": {
					"type": 35666
				},
				"MainTex": {
					"type": 35678
				},
				"BumpMap": {
					"type": 35678
				}
			},
			"attributes": {
				"a_position": "position",
				"a_normal": "normal",
				"a_color": "color",
				"a_tangent": "tangent",
				"a_texcoord0": "texcoord0"
			},
			"uniforms": {
				"u_modelViewMatrix": "modelViewMatrix",
				"u_projectionMatrix": "projectionMatrix",
				"u_normalMatrix": "normalMatrix",
				"u_SceneLight_0_matrix": "SceneLight_0_matrix",
				"u_SceneLight_0_color": "SceneLight_0_color",
				"u_SceneLight_1_matrix": "SceneLight_1_matrix",
				"u_SceneLight_1_color": "SceneLight_1_color",
				"u_ambient_light_color": "ambient_light_color",
				"u_Shininess": "Shininess",
				"u_Cutoff": "Cutoff",
				"u_Color": "Color",
				"u_SpecColor": "SpecColor",
				"u_MainTex_TexelSize": "MainTex_TexelSize",
				"u_BumpMap_TexelSize": "BumpMap_TexelSize",
				"u_MainTex": "MainTex",
				"u_BumpMap": "BumpMap"
			},
			"states": {
				"enable": [
					2929
				],
				"functions": {
					"depthMask": [true]
				}
			}
		},
		"technique_79348357-432d-4746-8e29-0e25c112e3aa": {
			"program": "program_79348357-432d-4746-8e29-0e25c112e3aa",
			"parameters": {
				"position": {
					"type": 35665,
					"semantic": "POSITION"
				},
				"normal": {
					"type": 35665,
					"semantic": "NORMAL"
				},
				"color": {
					"type": 35666,
					"semantic": "COLOR"
				},
				"texcoord0": {
					"type": 35665,
					"semantic": "TEXCOORD_0"
				},
				"modelViewMatrix": {
					"type": 35676,
					"semantic": "MODELVIEW"
				},
				"projectionMatrix": {
					"type": 35676,
					"semantic": "PROJECTION"
				},
				"normalMatrix": {
					"type": 35675,
					"semantic": "MODELVIEWINVERSETRANSPOSE"
				},
				"SceneLight_0_matrix": {
					"type": 35676,
					"semantic": "MODELVIEW",
					"node": "node_SceneLight_0_i1"
				},
				"SceneLight_0_color": {
					"type": 35666,
					"node": "node_SceneLight_0_i1"
				},
				"SceneLight_1_matrix": {
					"type": 35676,
					"semantic": "MODELVIEW",
					"node": "node_SceneLight_1_i2"
				},
				"SceneLight_1_color": {
					"type": 35666,
					"node": "node_SceneLight_1_i2"
				},
				"ambient_light_color": {
					"type": 35666
				},
				"Cutoff": {
					"type": 5126
				},
				"Color": {
					"type": 35666
				}
			},
			"attributes": {
				"a_position": "position",
				"a_normal": "normal",
				"a_color": "color",
				"a_texcoord0": "texcoord0"
			},
			"uniforms": {
				"u_modelViewMatrix": "modelViewMatrix",
				"u_projectionMatrix": "projectionMatrix",
				"u_normalMatrix": "normalMatrix",
				"u_SceneLight_0_matrix": "SceneLight_0_matrix",
				"u_SceneLight_0_color": "SceneLight_0_color",
				"u_SceneLight_1_matrix": "SceneLight_1_matrix",
				"u_SceneLight_1_color": "SceneLight_1_color",
				"u_ambient_light_color": "ambient_light_color",
				"u_Cutoff": "Cutoff",
				"u_Color": "Color"
			},
			"states": {
				"enable": [
					2929
				],
				"functions": {
					"depthMask": [true]
				}
			}
		},
		"technique_4391385a-df73-4396-9e33-31e4e4930b27": {
			"program": "program_4391385a-df73-4396-9e33-31e4e4930b27",
			"parameters": {
				"position": {
					"type": 35665,
					"semantic": "POSITION"
				},
				"normal": {
					"type": 35665,
					"semantic": "NORMAL"
				},
				"color": {
					"type": 35666,
					"semantic": "COLOR"
				},
				"tangent": {
					"type": 35666,
					"semantic": "TANGENT"
				},
				"texcoord0": {
					"type": 35665,
					"semantic": "TEXCOORD_0"
				},
				"modelViewMatrix": {
					"type": 35676,
					"semantic": "MODELVIEW"
				},
				"projectionMatrix": {
					"type": 35676,
					"semantic": "PROJECTION"
				},
				"normalMatrix": {
					"type": 35675,
					"semantic": "MODELVIEWINVERSETRANSPOSE"
				},
				"SceneLight_0_matrix": {
					"type": 35676,
					"semantic": "MODELVIEW",
					"node": "node_SceneLight_0_i1"
				},
				"SceneLight_0_color": {
					"type": 35666,
					"node": "node_SceneLight_0_i1"
				},
				"SceneLight_1_matrix": {
					"type": 35676,
					"semantic": "MODELVIEW",
					"node": "node_SceneLight_1_i2"
				},
				"SceneLight_1_color": {
					"type": 35666,
					"node": "node_SceneLight_1_i2"
				},
				"ambient_light_color": {
					"type": 35666
				},
				"OutlineMax": {
					"type": 5126
				}
			},
			"attributes": {
				"a_position": "position",
				"a_normal": "normal",
				"a_color": "color",
				"a_tangent": "tangent",
				"a_texcoord0": "texcoord0"
			},
			"uniforms": {
				"u_modelViewMatrix": "modelViewMatrix",
				"u_projectionMatrix": "projectionMatrix",
				"u_normalMatrix": "normalMatrix",
				"u_SceneLight_0_matrix": "SceneLight_0_matrix",
				"u_SceneLight_0_color": "SceneLight_0_color",
				"u_SceneLight_1_matrix": "SceneLight_1_matrix",
				"u_SceneLight_1_color": "SceneLight_1_color",
				"u_ambient_light_color": "ambient_light_color",
				"u_OutlineMax": "OutlineMax"
			},
			"states": {
				"enable": [
					2929,
					2884
				],
				"functions": {
					"depthMask": [true]
				}
			}
		}
	},
	"samplers": {
		"sampler_LINEAR_LINEAR_MIPMAP_LINEAR_REPEAT": {
			"magFilter": 9729,
			"minFilter": 9987,
			"wrapS": 10497,
			"wrapT": 10497
		}
	},
	"textures": {
		"texture_f1114e2e-eb8d-4fde-915a-6e653b54e9f5_MainTex": {
			"format": 6408,
			"internalFormat": 6408,
			"sampler": "sampler_LINEAR_LINEAR_MIPMAP_LINEAR_REPEAT",
			"source": "image_f1114e2e-eb8d-4fde-915a-6e653b54e9f5_MainTex",
			"target": 3553,
			"type": 5121
		},
		"texture_f1114e2e-eb8d-4fde-915a-6e653b54e9f5_BumpMap": {
			"format": 6408,
			"internalFormat": 6408,
			"sampler": "sampler_LINEAR_LINEAR_MIPMAP_LINEAR_REPEAT",
			"source": "image_f1114e2e-eb8d-4fde-915a-6e653b54e9f5_BumpMap",
			"target": 3553,
			"type": 5121
		}
	},
	"images": {
		"image_f1114e2e-eb8d-4fde-915a-6e653b54e9f5_MainTex": {
			"uri": "https://www.tiltbrush.com/shaders/brushes/Paper-f1114e2e-eb8d-4fde-915a-6e653b54e9f5/Paper-f1114e2e-eb8d-4fde-915a-6e653b54e9f5-v10.0-MainTex.png"
		},
		"image_f1114e2e-eb8d-4fde-915a-6e653b54e9f5_BumpMap": {
			"uri": "https://www.tiltbrush.com/shaders/brushes/Paper-f1114e2e-eb8d-4fde-915a-6e653b54e9f5/Paper-f1114e2e-eb8d-4fde-915a-6e653b54e9f5-v10.0-BumpMap.png"
		}
	},
	"materials": {
		"material_f1114e2e-eb8d-4fde-915a-6e653b54e9f5": {
			"technique": "technique_f1114e2e-eb8d-4fde-915a-6e653b54e9f5",
			"values": {
				"SceneLight_0_color": [0.7780392, 0.8156863, 0.9913726, 1],
				"SceneLight_1_color": [0.4282353, 0.4211765, 0.3458824, 1],
				"ambient_light_color": [0.3921569, 0.3921569, 0.3921569, 1],
				"Shininess": 0.145,
				"Cutoff": 0.16,
				"Color": [1, 1, 1, 1],
				"SpecColor": [0.1411765, 0.1411765, 0.1411765, 1],
				"MainTex_TexelSize": [0.0009765625, 0.0078125, 1024, 128],
				"BumpMap_TexelSize": [0.0009765625, 0.0078125, 1024, 128],
				"MainTex": "texture_f1114e2e-eb8d-4fde-915a-6e653b54e9f5_MainTex",
				"BumpMap": "texture_f1114e2e-eb8d-4fde-915a-6e653b54e9f5_BumpMap"
			},
			"name": "material_f1114e2e-eb8d-4fde-915a-6e653b54e9f5"
		},
		"material_79348357-432d-4746-8e29-0e25c112e3aa": {
			"technique": "technique_79348357-432d-4746-8e29-0e25c112e3aa",
			"values": {
				"SceneLight_0_color": [0.7780392, 0.8156863, 0.9913726, 1],
				"SceneLight_1_color": [0.4282353, 0.4211765, 0.3458824, 1],
				"ambient_light_color": [0.3921569, 0.3921569, 0.3921569, 1],
				"Cutoff": 0.5,
				"Color": [1, 1, 1, 1]
			},
			"name": "material_79348357-432d-4746-8e29-0e25c112e3aa"
		},
		"material_4391385a-df73-4396-9e33-31e4e4930b27": {
			"technique": "technique_4391385a-df73-4396-9e33-31e4e4930b27",
			"values": {
				"SceneLight_0_color": [0.7780392, 0.8156863, 0.9913726, 1],
				"SceneLight_1_color": [0.4282353, 0.4211765, 0.3458824, 1],
				"ambient_light_color": [0.3921569, 0.3921569, 0.3921569, 1],
				"OutlineMax": 0.005
			},
			"name": "material_4391385a-df73-4396-9e33-31e4e4930b27"
		}
	},
	"nodes": {
		"node_Paper_f1114e2e-eb8d-4fde-915a-6e653b54e9f5_0_i0": {
			"name": "node_Paper_f1114e2e-eb8d-4fde-915a-6e653b54e9f5_0_i0",
			"meshes": [
				"mesh_Paper_f1114e2e-eb8d-4fde-915a-6e653b54e9f5_0_i0"
			],
			"matrix": [1, 0, 0, 0, 0, 1, 0, 0, 0, 0, 1, 0, 0, 0, 0, 1]
		},
		"node_SceneLight_0_i1": {
			"name": "node_SceneLight_0_i1",
			"light": "SceneLight_0",
			"matrix": [0.898794, 0.2191856, -0.3796406, 0, -0.4383712, 0.449397, -0.7783785, 0, -1.490116E-08, 0.8660254, 0.4999999, 0, 0.4719864, -1.562971, 0.5017025, 1]
		},
		"node_SceneLight_1_i2": {
			"name": "node_SceneLight_1_i2",
			"light": "SceneLight_1",
			"matrix": [0.7660446, -0.4924039, -0.4131757, 0, -0.6427875, -0.5868244, -0.4924039, 0, 2.980232E-08, 0.6427875, -0.7660447, 0, 0.4719864, -1.581393, 0.397225, 1]
		},
		"node_MatteHull_79348357-432d-4746-8e29-0e25c112e3aa_0_i0": {
			"name": "node_MatteHull_79348357-432d-4746-8e29-0e25c112e3aa_0_i0",
			"meshes": [
				"mesh_MatteHull_79348357-432d-4746-8e29-0e25c112e3aa_0_i0"
			],
			"matrix": [1, 0, 0, 0, 0, 1, 0, 0, 0, 0, 1, 0, 0, 0, 0, 1]
		},
		"node_Toon_4391385a-df73-4396-9e33-31e4e4930b27_0_i0": {
			"name": "node_Toon_4391385a-df73-4396-9e33-31e4e4930b27_0_i0",
			"meshes": [
				"mesh_Toon_4391385a-df73-4396-9e33-31e4e4930b27_0_i0"
			],
			"matrix": [1, 0, 0, 0, 0, 1, 0, 0, 0, 0, 1, 0, 0, 0, 0, 1]
		}
	},
	"scene": "defaultScene",
	"scenes": {
		"defaultScene": {
			"nodes": [
				"node_Paper_f1114e2e-eb8d-4fde-915a-6e653b54e9f5_0_i0",
				"node_SceneLight_0_i1",
				"node_SceneLight_1_i2",
				"node_MatteHull_79348357-432d-4746-8e29-0e25c112e3aa_0_i0",
				"node_Toon_4391385a-df73-4396-9e33-31e4e4930b27_0_i0"
			],
			"extras": {
				"TB_EnvironmentGuid": "ab080599-e465-4a6d-8587-43bf495af68b",
				"TB_Environment": "Standard",
				"TB_UseGradient": "true",
				"TB_SkyColorA": "0.2745098, 0.2745098, 0.3176471",
				"TB_SkyColorB": "0.03529412, 0.03529412, 0.08627451",
				"TB_SkyGradientDirection": "0, 1, 0",
				"TB_FogColor": "0.1647059, 0.1647059, 0.2078431",
				"TB_FogDensity": "0.0025",
				"TB_SkyColorHorizon": "0.2745098, 0.2745098, 0.3176471",
				"TB_SkyColorZenith": "0.03529412, 0.03529412, 0.08627451"
			}
		}
	}
}