{
	"asset": {
		"generator": "Tilt Brush 22.3.bfe37158d",
		"version": "1.1",
		"copyright": "Unknown."
	},
	"buffers": {
		"buffer_sketch": {
			"byteLength": 421556,
			"type": "arraybuffer",
			"uri": "sketch.bin"
		}
	},
	"accessors": {
		"accessor_position_Toon_4391385a-df73-4396-9e33-31e4e4930b27_0_i0": {
			"bufferView": "vec3BufferView",
			"byteOffset": 0,
			"byteStride": 12,
			"componentType": 5126,
			"count": 5413,
			"max": [ 0.0698318705, 1.07167852, -0.0947517976 ],
			"min": [ -0.0446814857, 0.901318967, -0.189592272 ],
			"type": "VEC3"
		},
		"accessor_normal_Toon_4391385a-df73-4396-9e33-31e4e4930b27_0_i0": {
			"bufferView": "vec3BufferView",
			"byteOffset": 64956,
			"byteStride": 12,
			"componentType": 5126,
			"count": 5413,
			"max": [ 0.98227632, 0.999970615, 0.985656142 ],
			"min": [ -0.98227644, -0.999970615, -0.985656142 ],
			"type": "VEC3"
		},
		"accessor_color_Toon_4391385a-df73-4396-9e33-31e4e4930b27_0_i0": {
			"bufferView": "vec4BufferView",
			"byteOffset": 0,
			"byteStride": 16,
			"componentType": 5126,
			"count": 5413,
			"type": "VEC4"
		},
		"accessor_tangent_Toon_4391385a-df73-4396-9e33-31e4e4930b27_0_i0": {
			"bufferView": "vec4BufferView",
			"byteOffset": 86608,
			"byteStride": 16,
			"componentType": 5126,
			"count": 5413,
			"max": [ 0.993101716, 0.999873102, 0.993891358, 1 ],
			"min": [ -0.993101716, -0.999592066, -0.993891478, 1 ],
			"type": "VEC4"
		},
		"accessor_uv0_Toon_4391385a-df73-4396-9e33-31e4e4930b27_0_i0": {
			"bufferView": "vec3BufferView",
			"byteOffset": 129912,
			"byteStride": 12,
			"componentType": 5126,
			"count": 5413,
			"max": [ 2.79765844, 1, 0.0249999966 ],
			"min": [ -0.00323556433, 0, 0 ],
			"type": "VEC3"
		},
		"accessor_indices_0_Toon_4391385a-df73-4396-9e33-31e4e4930b27_0_i0": {
			"bufferView": "ushortBufferView",
			"byteOffset": 0,
			"byteStride": 0,
			"componentType": 5123,
			"count": 26736,
			"max": [ 5412 ],
			"min": [ 0 ],
			"type": "SCALAR"
		}
	},
	"bufferViews": {
		"ushortBufferView": {
			"buffer": "buffer_sketch",
			"byteLength": 53472,
			"byteOffset": 0,
			"target": 34963
		},
		"vec3BufferView": {
			"buffer": "buffer_sketch",
			"byteLength": 194868,
			"byteOffset": 53472,
			"target": 34962
		},
		"vec4BufferView": {
			"buffer": "buffer_sketch",
			"byteLength": 173216,
			"byteOffset": 248340,
			"target": 34962
		}
	},
	"meshes": {
		"mesh_Toon_4391385a-df73-4396-9e33-31e4e4930b27_0_i0": {
			"name": "mesh_Toon_4391385a-df73-4396-9e33-31e4e4930b27_0_i0",
			"primitives": [
				{
					"attributes": {
						"POSITION": "accessor_position_Toon_4391385a-df73-4396-9e33-31e4e4930b27_0_i0",
						"NORMAL": "accessor_normal_Toon_4391385a-df73-4396-9e33-31e4e4930b27_0_i0",
						"COLOR": "accessor_color_Toon_4391385a-df73-4396-9e33-31e4e4930b27_0_i0",
						"TANGENT": "accessor_tangent_Toon_4391385a-df73-4396-9e33-31e4e4930b27_0_i0",
						"TEXCOORD_0": "accessor_uv0_Toon_4391385a-df73-4396-9e33-31e4e4930b27_0_i0"
					},
					"indices": "accessor_indices_0_Toon_4391385a-df73-4396-9e33-31e4e4930b27_0_i0",
					"material": "material_4391385a-df73-4396-9e33-31e4e4930b27",
					"mode": 4
				}
			]
		}
	},
	"shaders": {
		"vertex_4391385a-df73-4396-9e33-31e4e4930b27": {
			"type": 35633,
			"uri": "https://www.tiltbrush.com/shaders/brushes/Toon-4391385a-df73-4396-9e33-31e4e4930b27/Toon-4391385a-df73-4396-9e33-31e4e4930b27-v10.0-vertex.glsl"
		},
		"fragment_4391385a-df73-4396-9e33-31e4e4930b27": {
			"type": 35632,
			"uri": "https://www.tiltbrush.com/shaders/brushes/Toon-4391385a-df73-4396-9e33-31e4e4930b27/Toon-4391385a-df73-4396-9e33-31e4e4930b27-v10.0-fragment.glsl"
		}
	},
	"programs": {
		"program_4391385a-df73-4396-9e33-31e4e4930b27": {
			"attributes": [
				"a_position",
				"a_normal",
				"a_color",
				"a_tangent",
				"a_texcoord0"
			],
			"vertexShader": "vertex_4391385a-df73-4396-9e33-31e4e4930b27",
			"fragmentShader": "fragment_4391385a-df73-4396-9e33-31e4e4930b27"
		}
	},
	"techniques": {
		"technique_4391385a-df73-4396-9e33-31e4e4930b27": {
			"program": "program_4391385a-df73-4396-9e33-31e4e4930b27",
			"parameters": {
				"position": {
					"type": 35665,
					"semantic": "POSITION"
				},
				"normal": {
					"type": 35665,
					"semantic": "NORMAL"
				},
				"color": {
					"type": 35666,
					"semantic": "COLOR"
				},
				"tangent": {
					"type": 35666,
					"semantic": "TANGENT"
				},
				"texcoord0": {
					"type": 35665,
					"semantic": "TEXCOORD_0"
				},
				"modelViewMatrix": {
					"type": 35676,
					"semantic": "MODELVIEW"
				},
				"projectionMatrix": {
					"type": 35676,
					"semantic": "PROJECTION"
				},
				"normalMatrix": {
					"type": 35675,
					"semantic": "MODELVIEWINVERSETRANSPOSE"
				},
				"SceneLight_0_matrix": {
					"type": 35676,
					"semantic": "MODELVIEW",
					"node": "node_SceneLight_0_i1"
				},
				"SceneLight_0_color": {
					"type": 35666,
					"node": "node_SceneLight_0_i1"
				},
				"SceneLight_1_matrix": {
					"type": 35676,
					"semantic": "MODELVIEW",
					"node": "node_SceneLight_1_i2"
				},
				"SceneLight_1_color": {
					"type": 35666,
					"node": "node_SceneLight_1_i2"
				},
				"ambient_light_color": {
					"type": 35666
				},
				"OutlineMax": {
					"type": 5126
				}
			},
			"attributes": {
				"a_position": "position",
				"a_normal": "normal",
				"a_color": "color",
				"a_tangent": "tangent",
				"a_texcoord0": "texcoord0"
			},
			"uniforms": {
				"u_modelViewMatrix": "modelViewMatrix",
				"u_projectionMatrix": "projectionMatrix",
				"u_normalMatrix": "normalMatrix",
				"u_SceneLight_0_matrix": "SceneLight_0_matrix",
				"u_SceneLight_0_color": "SceneLight_0_color",
				"u_SceneLight_1_matrix": "SceneLight_1_matrix",
				"u_SceneLight_1_color": "SceneLight_1_color",
				"u_ambient_light_color": "ambient_light_color",
				"u_OutlineMax": "OutlineMax"
			},
			"states": {
				"enable": [
					2929,
					2884
				],
				"functions": {
					"depthMask": [true]
				}
			}
		}
	},
	"materials": {
		"material_4391385a-df73-4396-9e33-31e4e4930b27": {
			"technique": "technique_4391385a-df73-4396-9e33-31e4e4930b27",
			"values": {
				"SceneLight_0_color": [0.7780392, 0.8156863, 0.9913726, 1],
				"SceneLight_1_color": [0.4282353, 0.4211765, 0.3458824, 1],
				"ambient_light_color": [0.3921569, 0.3921569, 0.3921569, 1],
				"OutlineMax": 0.005
			},
			"name": "material_4391385a-df73-4396-9e33-31e4e4930b27"
		}
	},
	"nodes": {
		"node_Toon_4391385a-df73-4396-9e33-31e4e4930b27_0_i0": {
			"name": "node_Toon_4391385a-df73-4396-9e33-31e4e4930b27_0_i0",
			"meshes": [
				"mesh_Toon_4391385a-df73-4396-9e33-31e4e4930b27_0_i0"
			],
			"matrix": [1, 0, 0, 0, 0, 1, 0, 0, 0, 0, 1, 0, 0, 0, 0, 1]
		},
		"node_SceneLight_0_i1": {
			"name": "node_SceneLight_0_i1",
			"light": "SceneLight_0",
			"matrix": [0.898794, 0.2191856, -0.3796406, 0, -0.4383712, 0.449397, -0.7783785, 0, -1.490116E-08, 0.8660254, 0.4999999, 0, 0.4719864, -1.562971, 0.5017025, 1]
		},
		"node_SceneLight_1_i2": {
			"name": "node_SceneLight_1_i2",
			"light": "SceneLight_1",
			"matrix": [0.7660446, -0.4924039, -0.4131757, 0, -0.6427875, -0.5868244, -0.4924039, 0, 2.980232E-08, 0.6427875, -0.7660447, 0, 0.4719864, -1.581393, 0.397225, 1]
		}
	},
	"scene": "defaultScene",
	"scenes": {
		"defaultScene": {
			"nodes": [
				"node_Toon_4391385a-df73-4396-9e33-31e4e4930b27_0_i0",
				"node_SceneLight_0_i1",
				"node_SceneLight_1_i2"
			],
			"extras": {
				"TB_EnvironmentGuid": "ab080599-e465-4a6d-8587-43bf495af68b",
				"TB_Environment": "Standard",
				"TB_UseGradient": "true",
				"TB_SkyColorA": "0.2745098, 0.2745098, 0.3176471",
				"TB_SkyColorB": "0.03529412, 0.03529412, 0.08627451",
				"TB_SkyGradientDirection": "0, 1, 0",
				"TB_FogColor": "0.1647059, 0.1647059, 0.2078431",
				"TB_FogDensity": "0.0025",
				"TB_SkyColorHorizon": "0.2745098, 0.2745098, 0.3176471",
				"TB_SkyColorZenith": "0.03529412, 0.03529412, 0.08627451"
			}
		}
	}
}