{
	"asset": {
		"generator": "Tilt Brush 22.3.bfe37158d",
		"version": "1.1",
		"copyright": "Unknown."
	},
	"buffers": {
		"buffer_sketch": {
			"byteLength": 532020,
			"type": "arraybuffer",
			"uri": "sketch.bin"
		}
	},
	"accessors": {
		"accessor_position_Marker_429ed64a-4e97-4466-84d3-145a861ef684_1_i0": {
			"bufferView": "vec3BufferView",
			"byteOffset": 0,
			"byteStride": 12,
			"componentType": 5126,
			"count": 6270,
			"max": [ 0.158710271, 1.36017442, 0.439643055 ],
			"min": [ -0.0171381738, 1.1838243, -0.0517639183 ],
			"type": "VEC3"
		},
		"accessor_normal_Marker_429ed64a-4e97-4466-84d3-145a861ef684_1_i0": {
			"bufferView": "vec3BufferView",
			"byteOffset": 75240,
			"byteStride": 12,
			"componentType": 5126,
			"count": 6270,
			"max": [ 0.999877512, 0.999967396, 0.997284889 ],
			"min": [ -0.999862075, -0.999981344, -0.998660624 ],
			"type": "VEC3"
		},
		"accessor_color_Marker_429ed64a-4e97-4466-84d3-145a861ef684_1_i0": {
			"bufferView": "vec4BufferView",
			"byteOffset": 0,
			"byteStride": 16,
			"componentType": 5126,
			"count": 6270,
			"type": "VEC4"
		},
		"accessor_tangent_Marker_429ed64a-4e97-4466-84d3-145a861ef684_1_i0": {
			"bufferView": "vec4BufferView",
			"byteOffset": 100320,
			"byteStride": 16,
			"componentType": 5126,
			"count": 6270,
			"max": [ 0.999639511, 0.99993068, 0.999442399, 1 ],
			"min": [ -0.998414576, -0.99907428, -0.999922037, 1 ],
			"type": "VEC4"
		},
		"accessor_uv0_Marker_429ed64a-4e97-4466-84d3-145a861ef684_1_i0": {
			"bufferView": "vec2BufferView",
			"byteOffset": 0,
			"byteStride": 8,
			"componentType": 5126,
			"count": 6270,
			"max": [ 44.7384911, 1 ],
			"min": [ 0.00641547516, 0 ],
			"type": "VEC2"
		},
		"accessor_indices_0_Marker_429ed64a-4e97-4466-84d3-145a861ef684_1_i0": {
			"bufferView": "ushortBufferView",
			"byteOffset": 0,
			"byteStride": 0,
			"componentType": 5123,
			"count": 17508,
			"max": [ 6269 ],
			"min": [ 0 ],
			"type": "SCALAR"
		},
		"accessor_position_Marker_429ed64a-4e97-4466-84d3-145a861ef684_0_i0": {
			"bufferView": "vec3BufferView",
			"byteOffset": 150480,
			"byteStride": 12,
			"componentType": 5126,
			"count": 958,
			"max": [ 0.153331429, 1.41170311, 0.367184222 ],
			"min": [ -0.436861664, 1.03462684, -0.0567747541 ],
			"type": "VEC3"
		},
		"accessor_normal_Marker_429ed64a-4e97-4466-84d3-145a861ef684_0_i0": {
			"bufferView": "vec3BufferView",
			"byteOffset": 161976,
			"byteStride": 12,
			"componentType": 5126,
			"count": 958,
			"max": [ 0.72356385, 0.992802739, 0.995913208 ],
			"min": [ -0.747647166, -0.77686435, -0.995908558 ],
			"type": "VEC3"
		},
		"accessor_color_Marker_429ed64a-4e97-4466-84d3-145a861ef684_0_i0": {
			"bufferView": "vec4BufferView",
			"byteOffset": 200640,
			"byteStride": 16,
			"componentType": 5126,
			"count": 958,
			"type": "VEC4"
		},
		"accessor_tangent_Marker_429ed64a-4e97-4466-84d3-145a861ef684_0_i0": {
			"bufferView": "vec4BufferView",
			"byteOffset": 215968,
			"byteStride": 16,
			"componentType": 5126,
			"count": 958,
			"max": [ 0.998650968, 0.999834478, 0.280165136, 1 ],
			"min": [ -0.999242961, -0.999832213, -0.965793252, 1 ],
			"type": "VEC4"
		},
		"accessor_uv0_Marker_429ed64a-4e97-4466-84d3-145a861ef684_0_i0": {
			"bufferView": "vec2BufferView",
			"byteOffset": 50160,
			"byteStride": 8,
			"componentType": 5126,
			"count": 958,
			"max": [ 1.66404033, 1 ],
			"min": [ 0.010383551, 0 ],
			"type": "VEC2"
		},
		"accessor_indices_0_Marker_429ed64a-4e97-4466-84d3-145a861ef684_0_i0": {
			"bufferView": "ushortBufferView",
			"byteOffset": 35016,
			"byteStride": 0,
			"componentType": 5123,
			"count": 2286,
			"max": [ 957 ],
			"min": [ 0 ],
			"type": "SCALAR"
		},
		"accessor_position_Wire_4391385a-cf83-4396-9e33-31e4e4930b27_0_i0": {
			"bufferView": "vec3BufferView",
			"byteOffset": 173472,
			"byteStride": 12,
			"componentType": 5126,
			"count": 388,
			"max": [ 0.170726195, 1.25354612, 0.233997658 ],
			"min": [ -0.0405297093, 1.14164364, 0.0633111745 ],
			"type": "VEC3"
		},
		"accessor_normal_Wire_4391385a-cf83-4396-9e33-31e4e4930b27_0_i0": {
			"bufferView": "vec3BufferView",
			"byteOffset": 178128,
			"byteStride": 12,
			"componentType": 5126,
			"count": 388,
			"max": [ 0.999210119, 0.99324435, 0.999037087 ],
			"min": [ -0.999210119, -0.999755681, -0.999037087 ],
			"type": "VEC3"
		},
		"accessor_color_Wire_4391385a-cf83-4396-9e33-31e4e4930b27_0_i0": {
			"bufferView": "vec4BufferView",
			"byteOffset": 231296,
			"byteStride": 16,
			"componentType": 5126,
			"count": 388,
			"type": "VEC4"
		},
		"accessor_tangent_Wire_4391385a-cf83-4396-9e33-31e4e4930b27_0_i0": {
			"bufferView": "vec4BufferView",
			"byteOffset": 237504,
			"byteStride": 16,
			"componentType": 5126,
			"count": 388,
			"max": [ 0.975509644, 0.999755621, 0.998886466, 1 ],
			"min": [ -0.975509644, -0.975553691, -0.998886526, 1 ],
			"type": "VEC4"
		},
		"accessor_uv0_Wire_4391385a-cf83-4396-9e33-31e4e4930b27_0_i0": {
			"bufferView": "vec3BufferView",
			"byteOffset": 182784,
			"byteStride": 12,
			"componentType": 5126,
			"count": 388,
			"max": [ 0.991497576, 1, 0.0279218014 ],
			"min": [ 0.0173584837, 0, 0 ],
			"type": "VEC3"
		},
		"accessor_indices_0_Wire_4391385a-cf83-4396-9e33-31e4e4930b27_0_i0": {
			"bufferView": "ushortBufferView",
			"byteOffset": 39588,
			"byteStride": 0,
			"componentType": 5123,
			"count": 1728,
			"max": [ 387 ],
			"min": [ 0 ],
			"type": "SCALAR"
		}
	},
	"bufferViews": {
		"ushortBufferView": {
			"buffer": "buffer_sketch",
			"byteLength": 43044,
			"byteOffset": 0,
			"target": 34963
		},
		"vec2BufferView": {
			"buffer": "buffer_sketch",
			"byteLength": 57824,
			"byteOffset": 43044,
			"target": 34962
		},
		"vec3BufferView": {
			"buffer": "buffer_sketch",
			"byteLength": 187440,
			"byteOffset": 100868,
			"target": 34962
		},
		"vec4BufferView": {
			"buffer": "buffer_sketch",
			"byteLength": 243712,
			"byteOffset": 288308,
			"target": 34962
		}
	},
	"meshes": {
		"mesh_Marker_429ed64a-4e97-4466-84d3-145a861ef684_1_i0": {
			"name": "mesh_Marker_429ed64a-4e97-4466-84d3-145a861ef684_1_i0",
			"primitives": [
				{
					"attributes": {
						"POSITION": "accessor_position_Marker_429ed64a-4e97-4466-84d3-145a861ef684_1_i0",
						"NORMAL": "accessor_normal_Marker_429ed64a-4e97-4466-84d3-145a861ef684_1_i0",
						"COLOR": "accessor_color_Marker_429ed64a-4e97-4466-84d3-145a861ef684_1_i0",
						"TANGENT": "accessor_tangent_Marker_429ed64a-4e97-4466-84d3-145a861ef684_1_i0",
						"TEXCOORD_0": "accessor_uv0_Marker_429ed64a-4e97-4466-84d3-145a861ef684_1_i0"
					},
					"indices": "accessor_indices_0_Marker_429ed64a-4e97-4466-84d3-145a861ef684_1_i0",
					"material": "material_429ed64a-4e97-4466-84d3-145a861ef684",
					"mode": 4
				}
			]
		},
		"mesh_Marker_429ed64a-4e97-4466-84d3-145a861ef684_0_i0": {
			"name": "mesh_Marker_429ed64a-4e97-4466-84d3-145a861ef684_0_i0",
			"primitives": [
				{
					"attributes": {
						"POSITION": "accessor_position_Marker_429ed64a-4e97-4466-84d3-145a861ef684_0_i0",
						"NORMAL": "accessor_normal_Marker_429ed64a-4e97-4466-84d3-145a861ef684_0_i0",
						"COLOR": "accessor_color_Marker_429ed64a-4e97-4466-84d3-145a861ef684_0_i0",
						"TANGENT": "accessor_tangent_Marker_429ed64a-4e97-4466-84d3-145a861ef684_0_i0",
						"TEXCOORD_0": "accessor_uv0_Marker_429ed64a-4e97-4466-84d3-145a861ef684_0_i0"
					},
					"indices": "accessor_indices_0_Marker_429ed64a-4e97-4466-84d3-145a861ef684_0_i0",
					"material": "material_429ed64a-4e97-4466-84d3-145a861ef684",
					"mode": 4
				}
			]
		},
		"mesh_Wire_4391385a-cf83-4396-9e33-31e4e4930b27_0_i0": {
			"name": "mesh_Wire_4391385a-cf83-4396-9e33-31e4e4930b27_0_i0",
			"primitives": [
				{
					"attributes": {
						"POSITION": "accessor_position_Wire_4391385a-cf83-4396-9e33-31e4e4930b27_0_i0",
						"NORMAL": "accessor_normal_Wire_4391385a-cf83-4396-9e33-31e4e4930b27_0_i0",
						"COLOR": "accessor_color_Wire_4391385a-cf83-4396-9e33-31e4e4930b27_0_i0",
						"TANGENT": "accessor_tangent_Wire_4391385a-cf83-4396-9e33-31e4e4930b27_0_i0",
						"TEXCOORD_0": "accessor_uv0_Wire_4391385a-cf83-4396-9e33-31e4e4930b27_0_i0"
					},
					"indices": "accessor_indices_0_Wire_4391385a-cf83-4396-9e33-31e4e4930b27_0_i0",
					"material": "material_4391385a-cf83-4396-9e33-31e4e4930b27",
					"mode": 4
				}
			]
		}
	},
	"shaders": {
		"vertex_429ed64a-4e97-4466-84d3-145a861ef684": {
			"type": 35633,
			"uri": "https://www.tiltbrush.com/shaders/brushes/Marker-429ed64a-4e97-4466-84d3-145a861ef684/Marker-429ed64a-4e97-4466-84d3-145a861ef684-v10.0-vertex.glsl"
		},
		"fragment_429ed64a-4e97-4466-84d3-145a861ef684": {
			"type": 35632,
			"uri": "https://www.tiltbrush.com/shaders/brushes/Marker-429ed64a-4e97-4466-84d3-145a861ef684/Marker-429ed64a-4e97-4466-84d3-145a861ef684-v10.0-fragment.glsl"
		},
		"vertex_4391385a-cf83-4396-9e33-31e4e4930b27": {
			"type": 35633,
			"uri": "https://www.tiltbrush.com/shaders/brushes/Wire-4391385a-cf83-4396-9e33-31e4e4930b27/Wire-4391385a-cf83-4396-9e33-31e4e4930b27-v10.0-vertex.glsl"
		},
		"fragment_4391385a-cf83-4396-9e33-31e4e4930b27": {
			"type": 35632,
			"uri": "https://www.tiltbrush.com/shaders/brushes/Wire-4391385a-cf83-4396-9e33-31e4e4930b27/Wire-4391385a-cf83-4396-9e33-31e4e4930b27-v10.0-fragment.glsl"
		}
	},
	"programs": {
		"program_429ed64a-4e97-4466-84d3-145a861ef684": {
			"attributes": [
				"a_position",
				"a_normal",
				"a_color",
				"a_tangent",
				"a_texcoord0"
			],
			"vertexShader": "vertex_429ed64a-4e97-4466-84d3-145a861ef684",
			"fragmentShader": "fragment_429ed64a-4e97-4466-84d3-145a861ef684"
		},
		"program_4391385a-cf83-4396-9e33-31e4e4930b27": {
			"attributes": [
				"a_position",
				"a_normal",
				"a_color",
				"a_tangent",
				"a_texcoord0"
			],
			"vertexShader": "vertex_4391385a-cf83-4396-9e33-31e4e4930b27",
			"fragmentShader": "fragment_4391385a-cf83-4396-9e33-31e4e4930b27"
		}
	},
	"techniques": {
		"technique_429ed64a-4e97-4466-84d3-145a861ef684": {
			"program": "program_429ed64a-4e97-4466-84d3-145a861ef684",
			"parameters": {
				"position": {
					"type": 35665,
					"semantic": "POSITION"
				},
				"normal": {
					"type": 35665,
					"semantic": "NORMAL"
				},
				"color": {
					"type": 35666,
					"semantic": "COLOR"
				},
				"tangent": {
					"type": 35666,
					"semantic": "TANGENT"
				},
				"texcoord0": {
					"type": 35664,
					"semantic": "TEXCOORD_0"
				},
				"modelViewMatrix": {
					"type": 35676,
					"semantic": "MODELVIEW"
				},
				"projectionMatrix": {
					"type": 35676,
					"semantic": "PROJECTION"
				},
				"normalMatrix": {
					"type": 35675,
					"semantic": "MODELVIEWINVERSETRANSPOSE"
				},
				"SceneLight_0_matrix": {
					"type": 35676,
					"semantic": "MODELVIEW",
					"node": "node_SceneLight_0_i1"
				},
				"SceneLight_0_color": {
					"type": 35666,
					"node": "node_SceneLight_0_i1"
				},
				"SceneLight_1_matrix": {
					"type": 35676,
					"semantic": "MODELVIEW",
					"node": "node_SceneLight_1_i2"
				},
				"SceneLight_1_color": {
					"type": 35666,
					"node": "node_SceneLight_1_i2"
				},
				"ambient_light_color": {
					"type": 35666
				},
				"Cutoff": {
					"type": 5126
				},
				"MainTex_TexelSize": {
					"type": 35666
				},
				"MainTex": {
					"type": 35678
				}
			},
			"attributes": {
				"a_position": "position",
				"a_normal": "normal",
				"a_color": "color",
				"a_tangent": "tangent",
				"a_texcoord0": "texcoord0"
			},
			"uniforms": {
				"u_modelViewMatrix": "modelViewMatrix",
				"u_projectionMatrix": "projectionMatrix",
				"u_normalMatrix": "normalMatrix",
				"u_SceneLight_0_matrix": "SceneLight_0_matrix",
				"u_SceneLight_0_color": "SceneLight_0_color",
				"u_SceneLight_1_matrix": "SceneLight_1_matrix",
				"u_SceneLight_1_color": "SceneLight_1_color",
				"u_ambient_light_color": "ambient_light_color",
				"u_Cutoff": "Cutoff",
				"u_MainTex_TexelSize": "MainTex_TexelSize",
				"u_MainTex": "MainTex"
			},
			"states": {
				"enable": [
					2929
				],
				"functions": {
					"depthMask": [true]
				}
			}
		},
		"technique_4391385a-cf83-4396-9e33-31e4e4930b27": {
			"program": "program_4391385a-cf83-4396-9e33-31e4e4930b27",
			"parameters": {
				"position": {
					"type": 35665,
					"semantic": "POSITION"
				},
				"normal": {
					"type": 35665,
					"semantic": "NORMAL"
				},
				"color": {
					"type": 35666,
					"semantic": "COLOR"
				},
				"tangent": {
					"type": 35666,
					"semantic": "TANGENT"
				},
				"texcoord0": {
					"type": 35665,
					"semantic": "TEXCOORD_0"
				},
				"modelViewMatrix": {
					"type": 35676,
					"semantic": "MODELVIEW"
				},
				"projectionMatrix": {
					"type": 35676,
					"semantic": "PROJECTION"
				},
				"normalMatrix": {
					"type": 35675,
					"semantic": "MODELVIEWINVERSETRANSPOSE"
				},
				"SceneLight_0_matrix": {
					"type": 35676,
					"semantic": "MODELVIEW",
					"node": "node_SceneLight_0_i1"
				},
				"SceneLight_0_color": {
					"type": 35666,
					"node": "node_SceneLight_0_i1"
				},
				"SceneLight_1_matrix": {
					"type": 35676,
					"semantic": "MODELVIEW",
					"node": "node_SceneLight_1_i2"
				},
				"SceneLight_1_color": {
					"type": 35666,
					"node": "node_SceneLight_1_i2"
				},
				"ambient_light_color": {
					"type": 35666
				},
				"Cutoff": {
					"type": 5126
				}
			},
			"attributes": {
				"a_position": "position",
				"a_normal": "normal",
				"a_color": "color",
				"a_tangent": "tangent",
				"a_texcoord0": "texcoord0"
			},
			"uniforms": {
				"u_modelViewMatrix": "modelViewMatrix",
				"u_projectionMatrix": "projectionMatrix",
				"u_normalMatrix": "normalMatrix",
				"u_SceneLight_0_matrix": "SceneLight_0_matrix",
				"u_SceneLight_0_color": "SceneLight_0_color",
				"u_SceneLight_1_matrix": "SceneLight_1_matrix",
				"u_SceneLight_1_color": "SceneLight_1_color",
				"u_ambient_light_color": "ambient_light_color",
				"u_Cutoff": "Cutoff"
			},
			"states": {
				"enable": [
					2929
				],
				"functions": {
					"depthMask": [true]
				}
			}
		}
	},
	"samplers": {
		"sampler_LINEAR_LINEAR_MIPMAP_LINEAR_REPEAT": {
			"magFilter": 9729,
			"minFilter": 9987,
			"wrapS": 10497,
			"wrapT": 10497
		}
	},
	"textures": {
		"texture_429ed64a-4e97-4466-84d3-145a861ef684_MainTex": {
			"format": 6408,
			"internalFormat": 6408,
			"sampler": "sampler_LINEAR_LINEAR_MIPMAP_LINEAR_REPEAT",
			"source": "image_429ed64a-4e97-4466-84d3-145a861ef684_MainTex",
			"target": 3553,
			"type": 5121
		}
	},
	"images": {
		"image_429ed64a-4e97-4466-84d3-145a861ef684_MainTex": {
			"uri": "https://www.tiltbrush.com/shaders/brushes/Marker-429ed64a-4e97-4466-84d3-145a861ef684/Marker-429ed64a-4e97-4466-84d3-145a861ef684-v10.0-MainTex.png"
		}
	},
	"materials": {
		"material_429ed64a-4e97-4466-84d3-145a861ef684": {
			"technique": "technique_429ed64a-4e97-4466-84d3-145a861ef684",
			"values": {
				"SceneLight_0_color": [0.7780392, 0.8156863, 0.9913726, 1],
				"SceneLight_1_color": [0.4282353, 0.4211765, 0.3458824, 1],
				"ambient_light_color": [0.3921569, 0.3921569, 0.3921569, 1],
				"Cutoff": 0.067,
				"MainTex_TexelSize": [0.015625, 0.00390625, 64, 256],
				"MainTex": "texture_429ed64a-4e97-4466-84d3-145a861ef684_MainTex"
			},
			"name": "material_429ed64a-4e97-4466-84d3-145a861ef684"
		},
		"material_4391385a-cf83-4396-9e33-31e4e4930b27": {
			"technique": "technique_4391385a-cf83-4396-9e33-31e4e4930b27",
			"values": {
				"SceneLight_0_color": [0.7780392, 0.8156863, 0.9913726, 1],
				"SceneLight_1_color": [0.4282353, 0.4211765, 0.3458824, 1],
				"ambient_light_color": [0.3921569, 0.3921569, 0.3921569, 1],
				"Cutoff": 0.067
			},
			"name": "material_4391385a-cf83-4396-9e33-31e4e4930b27"
		}
	},
	"nodes": {
		"node_Marker_429ed64a-4e97-4466-84d3-145a861ef684_1_i0": {
			"name": "node_Marker_429ed64a-4e97-4466-84d3-145a861ef684_1_i0",
			"meshes": [
				"mesh_Marker_429ed64a-4e97-4466-84d3-145a861ef684_1_i0"
			],
			"matrix": [1, 0, 0, 0, 0, 1, 0, 0, 0, 0, 1, 0, 0, 0, 0, 1]
		},
		"node_SceneLight_0_i1": {
			"name": "node_SceneLight_0_i1",
			"light": "SceneLight_0",
			"matrix": [0.898794, 0.2191856, -0.3796406, 0, -0.4383712, 0.449397, -0.7783785, 0, -1.490116E-08, 0.8660254, 0.4999999, 0, 0.4006228, -1.278139, 0.007925332, 1]
		},
		"node_SceneLight_1_i2": {
			"name": "node_SceneLight_1_i2",
			"light": "SceneLight_1",
			"matrix": [0.7660446, -0.4924039, -0.4131757, 0, -0.6427875, -0.5868244, -0.4924039, 0, 2.980232E-08, 0.6427875, -0.7660447, 0, 0.4006228, -1.312412, -0.1864447, 1]
		},
		"node_Marker_429ed64a-4e97-4466-84d3-145a861ef684_0_i0": {
			"name": "node_Marker_429ed64a-4e97-4466-84d3-145a861ef684_0_i0",
			"meshes": [
				"mesh_Marker_429ed64a-4e97-4466-84d3-145a861ef684_0_i0"
			],
			"matrix": [1, 0, 0, 0, 0, 1, 0, 0, 0, 0, 1, 0, 0, 0, 0, 1]
		},
		"node_Wire_4391385a-cf83-4396-9e33-31e4e4930b27_0_i0": {
			"name": "node_Wire_4391385a-cf83-4396-9e33-31e4e4930b27_0_i0",
			"meshes": [
				"mesh_Wire_4391385a-cf83-4396-9e33-31e4e4930b27_0_i0"
			],
			"matrix": [1, 0, 0, 0, 0, 1, 0, 0, 0, 0, 1, 0, 0, 0, 0, 1]
		}
	},
	"scene": "defaultScene",
	"scenes": {
		"defaultScene": {
			"nodes": [
				"node_Marker_429ed64a-4e97-4466-84d3-145a861ef684_1_i0",
				"node_SceneLight_0_i1",
				"node_SceneLight_1_i2",
				"node_Marker_429ed64a-4e97-4466-84d3-145a861ef684_0_i0",
				"node_Wire_4391385a-cf83-4396-9e33-31e4e4930b27_0_i0"
			],
			"extras": {
				"TB_EnvironmentGuid": "ab080599-e465-4a6d-8587-43bf495af68b",
				"TB_Environment": "Standard",
				"TB_UseGradient": "true",
				"TB_SkyColorA": "0.2745098, 0.2745098, 0.3176471",
				"TB_SkyColorB": "0.03529412, 0.03529412, 0.08627451",
				"TB_SkyGradientDirection": "0, 1, 0",
				"TB_FogColor": "0.1647059, 0.1647059, 0.2078431",
				"TB_FogDensity": "0.0025",
				"TB_SkyColorHorizon": "0.2745098, 0.2745098, 0.3176471",
				"TB_SkyColorZenith": "0.03529412, 0.03529412, 0.08627451"
			}
		}
	}
}